<svg width="25" height="29" viewBox="0 0 25 29" fill="none" xmlns="http://www.w3.org/2000/svg">
<path d="M8.25 10.3125H10.3125V22.6875H8.25V10.3125Z" fill="#575757"/>
<path d="M14.4375 10.3125H16.5V22.6875H14.4375V10.3125Z" fill="#575757"/>
<path d="M0 4.125V6.1875H2.0625V26.8125C2.0625 27.3595 2.2798 27.8841 2.66659 28.2709C3.05339 28.6577 3.57799 28.875 4.125 28.875H20.625C21.172 28.875 21.6966 28.6577 22.0834 28.2709C22.4702 27.8841 22.6875 27.3595 22.6875 26.8125V6.1875H24.75V4.125H0ZM4.125 26.8125V6.1875H20.625V26.8125H4.125Z" fill="#575757"/>
<path d="M8.25 0H16.5V2.0625H8.25V0Z" fill="#575757"/>
</svg>
