<svg width="24" height="25" viewBox="0 0 24 25" fill="none" xmlns="http://www.w3.org/2000/svg">
<path d="M11.9897 6.41895C10.3554 6.41895 8.78809 7.07059 7.63247 8.23052C6.47686 9.39044 5.82764 10.9636 5.82764 12.604C5.82764 14.2444 6.47686 15.8176 7.63247 16.9775C8.78809 18.1375 10.3554 18.7891 11.9897 18.7891C13.624 18.7891 15.1914 18.1375 16.347 16.9775C17.5026 15.8176 18.1518 14.2444 18.1518 12.604C18.1518 10.9636 17.5026 9.39044 16.347 8.23052C15.1914 7.07059 13.624 6.41895 11.9897 6.41895ZM11.9897 16.6209C10.928 16.6209 9.90977 16.1975 9.15902 15.444C8.40827 14.6904 7.9865 13.6684 7.9865 12.6027C7.9865 11.537 8.40827 10.515 9.15902 9.76142C9.90977 9.00787 10.928 8.58453 11.9897 8.58453C13.0515 8.58453 14.0697 9.00787 14.8204 9.76142C15.5712 10.515 15.993 11.537 15.993 12.6027C15.993 13.6684 15.5712 14.6904 14.8204 15.444C14.0697 16.1975 13.0515 16.6209 11.9897 16.6209Z" fill="#1D1D1D"/>
<path d="M18.3958 7.63388C19.1892 7.63388 19.8324 6.9883 19.8324 6.19194C19.8324 5.39558 19.1892 4.75 18.3958 4.75C17.6024 4.75 16.9592 5.39558 16.9592 6.19194C16.9592 6.9883 17.6024 7.63388 18.3958 7.63388Z" fill="#1D1D1D"/>
<path d="M23.3624 4.72589C23.0539 3.92624 22.5824 3.20006 21.9782 2.59383C21.374 1.98759 20.6504 1.51466 19.8536 1.20531C18.9212 0.854001 17.9361 0.66404 16.9404 0.64352C15.6571 0.58734 15.2506 0.571289 11.9964 0.571289C8.74207 0.571289 8.32495 0.571289 7.05229 0.64352C6.05733 0.662991 5.07301 0.852991 4.14182 1.20531C3.34482 1.5143 2.62097 1.9871 2.01672 2.59338C1.41246 3.19966 0.941143 3.92603 0.633 4.72589C0.282924 5.6617 0.0941032 6.65049 0.0746274 7.64989C0.0173242 8.93667 0 9.34464 0 12.6124C0 15.8788 -9.92889e-09 16.2948 0.0746274 17.5749C0.0946169 18.5755 0.282518 19.5626 0.633 20.5003C0.942008 21.2998 1.41378 22.0259 2.01819 22.6321C2.62259 23.2383 3.34633 23.7113 4.14315 24.0208C5.07258 24.3863 6.05731 24.5898 7.05496 24.6228C8.33828 24.6789 8.74473 24.6963 11.999 24.6963C15.2533 24.6963 15.6704 24.6963 16.9431 24.6228C17.9387 24.6024 18.9237 24.4129 19.8562 24.0623C20.6528 23.7522 21.3763 23.2789 21.9804 22.6725C22.5845 22.0661 23.0561 21.34 23.365 20.5404C23.7155 19.6041 23.9034 18.6169 23.9234 17.6164C23.9807 16.3296 23.998 15.9216 23.998 12.6539C23.998 9.38611 23.998 8.97145 23.9234 7.69136C23.9079 6.67782 23.7181 5.67458 23.3624 4.72589ZM21.7392 17.4759C21.7306 18.2468 21.5905 19.0105 21.3248 19.7338C21.1247 20.254 20.8183 20.7263 20.4254 21.1205C20.0324 21.5146 19.5617 21.8219 19.0433 22.0225C18.3307 22.2879 17.5779 22.4286 16.8178 22.4385C15.5518 22.4973 15.1947 22.512 11.9484 22.512C8.69943 22.512 8.3676 22.512 7.07761 22.4385C6.31791 22.4291 5.56551 22.2884 4.85345 22.0225C4.3333 21.8231 3.86064 21.5164 3.46603 21.1222C3.07142 20.728 2.76366 20.255 2.56265 19.7338C2.30072 19.0183 2.16061 18.2636 2.1482 17.5014C2.0909 16.2306 2.07757 15.8722 2.07757 12.6137C2.07757 9.354 2.07757 9.02094 2.1482 7.7248C2.15682 6.95437 2.297 6.19113 2.56265 5.46826C2.96911 4.41289 3.802 3.58224 4.85345 3.17828C5.56586 2.91362 6.31804 2.77294 7.07761 2.76229C8.34494 2.70477 8.70076 2.68872 11.9484 2.68872C15.196 2.68872 15.5292 2.68872 16.8178 2.76229C17.578 2.77146 18.3308 2.91219 19.0433 3.17828C19.5616 3.37929 20.0323 3.68684 20.4252 4.0812C20.8181 4.47557 21.1245 4.94803 21.3248 5.46826C21.5867 6.18381 21.7268 6.9385 21.7392 7.70072C21.7965 8.97279 21.8112 9.32993 21.8112 12.5897C21.8112 15.8481 21.8112 16.1985 21.7539 17.4773H21.7392V17.4759Z" fill="#1D1D1D"/>
</svg>
