<svg width="22" height="17" viewBox="0 0 22 17" fill="none" xmlns="http://www.w3.org/2000/svg">
<path fill-rule="evenodd" clip-rule="evenodd" d="M20.625 13.75V5.5C20.625 5.13533 20.4801 4.78559 20.2223 4.52773C19.9644 4.26987 19.6147 4.125 19.25 4.125H17.6385C16.545 4.1244 15.4966 3.68968 14.7235 2.91637L13.5823 1.77787C13.3251 1.52067 12.9766 1.37581 12.6129 1.375H9.3885C9.02386 1.37508 8.67418 1.51999 8.41638 1.77787L7.27788 2.91637C6.50447 3.69002 5.45543 4.12477 4.3615 4.125H2.75C2.38533 4.125 2.03559 4.26987 1.77773 4.52773C1.51987 4.78559 1.375 5.13533 1.375 5.5V13.75C1.375 14.1147 1.51987 14.4644 1.77773 14.7223C2.03559 14.9801 2.38533 15.125 2.75 15.125H19.25C19.6147 15.125 19.9644 14.9801 20.2223 14.7223C20.4801 14.4644 20.625 14.1147 20.625 13.75ZM2.75 2.75C2.02065 2.75 1.32118 3.03973 0.805456 3.55546C0.289731 4.07118 0 4.77065 0 5.5L0 13.75C0 14.4793 0.289731 15.1788 0.805456 15.6945C1.32118 16.2103 2.02065 16.5 2.75 16.5H19.25C19.9793 16.5 20.6788 16.2103 21.1945 15.6945C21.7103 15.1788 22 14.4793 22 13.75V5.5C22 4.77065 21.7103 4.07118 21.1945 3.55546C20.6788 3.03973 19.9793 2.75 19.25 2.75H17.6385C16.9092 2.74984 16.2099 2.46001 15.6942 1.94425L14.5558 0.80575C14.0401 0.289989 13.3408 0.000155753 12.6115 0H9.3885C8.65921 0.000155753 7.95986 0.289989 7.44425 0.80575L6.30575 1.94425C5.79014 2.46001 5.09079 2.74984 4.3615 2.75H2.75Z" fill="#7C17FC"/>
<path fill-rule="evenodd" clip-rule="evenodd" d="M11 12.375C11.9117 12.375 12.786 12.0128 13.4307 11.3682C14.0753 10.7235 14.4375 9.84918 14.4375 8.9375C14.4375 8.02582 14.0753 7.15148 13.4307 6.50682C12.786 5.86216 11.9117 5.5 11 5.5C10.0883 5.5 9.21398 5.86216 8.56932 6.50682C7.92466 7.15148 7.5625 8.02582 7.5625 8.9375C7.5625 9.84918 7.92466 10.7235 8.56932 11.3682C9.21398 12.0128 10.0883 12.375 11 12.375ZM11 13.75C12.2764 13.75 13.5004 13.243 14.403 12.3405C15.3055 11.4379 15.8125 10.2139 15.8125 8.9375C15.8125 7.66115 15.3055 6.43707 14.403 5.53455C13.5004 4.63203 12.2764 4.125 11 4.125C9.72365 4.125 8.49957 4.63203 7.59705 5.53455C6.69453 6.43707 6.1875 7.66115 6.1875 8.9375C6.1875 10.2139 6.69453 11.4379 7.59705 12.3405C8.49957 13.243 9.72365 13.75 11 13.75Z" fill="#7C17FC"/>
<path d="M4.125 6.1875C4.125 6.36984 4.05257 6.5447 3.92364 6.67364C3.7947 6.80257 3.61984 6.875 3.4375 6.875C3.25516 6.875 3.0803 6.80257 2.95136 6.67364C2.82243 6.5447 2.75 6.36984 2.75 6.1875C2.75 6.00516 2.82243 5.8303 2.95136 5.70136C3.0803 5.57243 3.25516 5.5 3.4375 5.5C3.61984 5.5 3.7947 5.57243 3.92364 5.70136C4.05257 5.8303 4.125 6.00516 4.125 6.1875Z" fill="#7C17FC"/>
</svg>
