<svg width="21" height="22" viewBox="0 0 21 22" fill="none" xmlns="http://www.w3.org/2000/svg">
<path d="M18.5778 21.4866H18.4405C2.57521 20.5705 0.322574 7.12896 0.0076903 3.02678C-0.0176819 2.70784 0.0198728 2.38699 0.118202 2.08264C0.216532 1.77829 0.373704 1.49642 0.580713 1.25316C0.787721 1.00991 1.0405 0.81006 1.32456 0.665067C1.60862 0.520073 1.91838 0.432785 2.2361 0.408204H6.68485C7.00826 0.40789 7.32431 0.505091 7.59206 0.687218C7.85982 0.869345 8.06694 1.128 8.1866 1.42969L9.41384 4.46173C9.53201 4.75646 9.56133 5.07956 9.49817 5.39088C9.43501 5.7022 9.28216 5.98803 9.05859 6.21286L7.33884 7.95588C7.60747 9.48872 8.33854 10.9017 9.43314 12.0037C10.5277 13.1057 11.933 13.8435 13.4589 14.1172L15.2109 12.3742C15.4382 12.1522 15.7256 12.0023 16.0371 11.9432C16.3487 11.8841 16.6707 11.9184 16.963 12.0418L20.0069 13.266C20.3028 13.3899 20.5553 13.5995 20.7321 13.8681C20.909 14.1366 21.0022 14.452 21 14.7739V19.0544C21 19.6995 20.7448 20.3181 20.2905 20.7742C19.8363 21.2303 19.2202 21.4866 18.5778 21.4866ZM2.42988 2.02962C2.21574 2.02962 2.01038 2.11503 1.85896 2.26707C1.70755 2.4191 1.62248 2.62531 1.62248 2.84032V2.90518C1.99388 7.70456 4.3757 19.0544 18.5293 19.8651C18.6354 19.8717 18.7417 19.8572 18.8422 19.8225C18.9427 19.7877 19.0353 19.7333 19.1148 19.6625C19.1943 19.5917 19.2592 19.5059 19.3055 19.4099C19.3519 19.3139 19.379 19.2096 19.3852 19.1031V14.7739L16.3413 13.5497L14.0241 15.8603L13.6365 15.8116C6.61218 14.9279 5.65946 7.87481 5.65946 7.80184L5.61101 7.4127L7.90401 5.08598L6.69292 2.02962H2.42988Z" fill="#1D1D1D"/>
</svg>
