<svg width="77" height="74" viewBox="0 0 77 74" fill="none" xmlns="http://www.w3.org/2000/svg">
<path d="M4.23841 42.872C4.02067 43.4283 3.86921 44.001 3.80104 44.5783C3.59277 46.3303 4.12008 47.9144 5.2845 49.0362C5.94433 49.6718 6.76322 50.0749 7.64931 50.2966L13.3162 72.4144C13.4222 72.8302 13.8094 73.1075 14.2344 73.1075C14.3092 73.1075 14.3859 73.0993 14.4616 73.081C14.9691 72.9607 15.2796 72.4664 15.1537 71.9775L9.64397 50.4744C10.3388 50.4251 11.0451 50.2692 11.738 50.0129C12.7747 52.2346 14.7447 53.629 16.9628 53.629C18.9205 53.629 20.6776 52.5364 21.7786 50.7562C22.3191 51.048 23.2033 51.4575 24.5457 51.9327C24.4861 53.5661 25.0418 55.0298 26.1494 56.096C27.2286 57.1356 28.6846 57.6409 30.2343 57.6409C31.1545 57.6409 32.1059 57.4539 33.0327 57.1037C34.1233 59.484 36.2145 60.9825 38.5746 60.9825C40.9413 60.9825 43.0363 59.4767 44.125 57.0873C44.7555 57.3217 45.4049 57.4822 46.06 57.5542C46.3346 57.5843 46.6053 57.5989 46.8713 57.5989C48.3472 57.5989 49.6641 57.1192 50.6893 56.2483C52.0355 56.3458 53.4404 56.4361 54.9087 56.5182L50.7811 71.9675C50.6505 72.4554 50.9563 72.9525 51.4627 73.0783C51.5413 73.0975 51.6208 73.1075 51.6994 73.1075C52.1207 73.1075 52.506 72.8348 52.6158 72.4235L57.0311 55.8981C57.1012 55.6327 57.0453 55.3518 56.8778 55.1311C56.7093 54.9104 56.4489 54.7745 56.1649 54.7599C54.8964 54.6942 53.6884 54.6203 52.5079 54.5428C54.1816 54.0978 55.3735 53.7594 57.211 53.0353C57.2413 53.0234 57.2602 52.9997 57.2886 52.9851C58.0555 53.3964 58.9018 53.629 59.7926 53.629C62.0202 53.629 63.994 52.2236 65.0278 49.9865C65.8656 50.2893 66.7233 50.4516 67.5535 50.4516C67.7892 50.4516 68.0174 50.4188 68.2474 50.3932L63.1382 71.9921C63.0217 72.4837 63.3408 72.9725 63.8501 73.0838C63.9211 73.0993 63.9921 73.1066 64.0621 73.1066C64.4938 73.1066 64.8839 72.8202 64.9842 72.397L70.3396 49.7539C70.7268 49.5423 71.097 49.2997 71.4217 48.9869C72.5861 47.8652 73.1134 46.2819 72.9051 44.5291C72.8341 43.9317 72.677 43.3389 72.446 42.7643C74.7455 41.7648 76.1882 39.8697 76.1882 37.7356C76.1882 35.5924 74.7341 33.6918 72.4176 32.6959C72.6353 32.1395 72.7868 31.5677 72.8549 30.9904C73.0632 29.2376 72.5359 27.6543 71.3715 26.5326C69.7574 24.9776 67.2506 24.683 64.9142 25.5485C64.4834 24.6292 63.8927 23.8568 63.1903 23.263C64.4834 23.036 65.7671 22.6228 66.8568 21.8996C69.3702 20.2306 69.6059 17.6141 68.7605 15.8895C67.9776 14.2926 66.3967 13.4335 64.597 13.5129C64.5251 11.7591 63.5008 10.3345 61.7816 9.71984C59.9242 9.05773 57.2394 9.50644 55.7285 12.0628C55.3176 12.7586 55.044 13.5183 54.8613 14.299C54.1485 13.2256 53.0437 12.3364 51.6455 11.7481C51.8963 11.1262 52.0667 10.485 52.1434 9.83932C52.3659 7.95877 51.8026 6.26245 50.5539 5.06044C48.8064 3.37689 46.0799 3.07593 43.5494 4.039C42.4428 1.61855 40.3184 0.0927734 37.9204 0.0927734C35.514 0.0927734 33.383 1.62858 32.2811 4.06453C29.7695 3.13065 27.0734 3.44346 25.34 5.11242C23.5924 6.79597 23.28 9.42345 24.2806 11.8612C23.2951 12.2789 22.4621 12.8507 21.8032 13.5284C21.718 13.2119 21.6176 12.9 21.4889 12.5972C20.332 9.87397 17.7268 9.09604 15.8003 9.52194C14.0129 9.91775 12.8068 11.2028 12.5011 12.9328C10.7043 12.6264 9.04377 13.2858 8.05354 14.7723C6.98379 16.3774 6.8664 19.0013 9.1356 20.9685C10.3909 22.0574 12.0258 22.6894 13.6295 23.0569C12.804 23.678 12.1139 24.5344 11.6311 25.5777C9.31169 24.7405 6.83422 25.0424 5.23432 26.5827C4.0699 27.7045 3.5426 29.2877 3.75087 31.0406C3.82187 31.6379 3.97902 32.2298 4.21001 32.8044C1.91052 33.8039 0.467773 35.7 0.467773 37.8332C0.467773 39.9754 1.92188 41.8761 4.23841 42.872ZM5.6821 44.7853C5.83168 43.5186 6.49341 42.2627 7.54612 41.2495C8.72948 40.1095 11.242 39.3681 13.3143 39.0206C13.3938 39.234 13.4922 39.4365 13.6096 39.6298L11.6235 41.5432C11.2533 41.8998 11.2533 42.4762 11.6235 42.8327C11.8081 43.0106 12.0504 43.1 12.2928 43.1C12.5351 43.1 12.7775 43.0106 12.9621 42.8327L14.934 40.933C15.1698 41.0717 15.4225 41.1811 15.6876 41.2687C15.3288 43.2778 14.5592 45.7092 13.3682 46.8574C11.2552 48.8939 8.22868 49.2915 6.62405 47.7466C5.87523 47.0252 5.5401 45.9737 5.6821 44.7853ZM20.2591 23.1682C20.314 23.1062 20.3623 23.0378 20.3992 22.9621C20.4466 22.8654 20.9067 21.895 21.3383 20.5015C22.0503 21.4245 23.0604 22.1924 24.309 22.7168C23.99 23.5138 23.8177 24.3292 23.7836 25.1253C23.209 25.1992 22.6391 25.3406 22.0843 25.5476C21.6318 24.5827 21.008 23.7719 20.2591 23.1682ZM26.1466 7.07413L34.5238 15.1444C34.3439 15.4198 34.2066 15.7208 34.1015 16.0364C31.8058 15.6643 29.0046 14.8489 27.6821 13.5758C25.6297 11.5977 25.0418 8.86621 26.1466 7.07413ZM37.9754 15.1189C39.1843 15.1189 40.1679 16.0674 40.1679 17.232C40.1679 18.3966 39.1843 19.3451 37.9754 19.3451C36.7664 19.3451 35.7819 18.3966 35.7819 17.232C35.7819 16.0665 36.7664 15.1189 37.9754 15.1189ZM49.8193 7.16442C50.2074 7.86666 50.3722 8.70844 50.2633 9.63412C50.0976 11.0286 49.3706 12.4093 48.2137 13.5238C46.8988 14.7897 44.1137 15.605 41.8302 15.9789C41.7356 15.7089 41.6154 15.4536 41.4648 15.2137L49.8193 7.16442ZM56.145 28.7597C57.3293 29.9006 58.099 32.3183 58.4597 34.3165C57.3625 34.6941 56.5038 35.534 56.1261 36.5974C54.8292 36.384 53.5502 36.0538 52.523 35.6498C52.5117 35.6453 52.5003 35.6471 52.489 35.6434C52.3924 34.2827 51.849 33.0698 50.8966 32.1514C50.108 31.3917 49.1159 30.9202 48.0348 30.7196C49.0156 30.4797 49.9017 30.0319 50.6098 29.3488C51.3103 28.6739 51.7723 27.844 52.0203 26.9393C53.4527 26.9603 54.9626 27.6206 56.145 28.7597ZM38.5225 46.1853C37.343 46.1853 36.383 45.2605 36.383 44.1241C36.383 42.9878 37.343 42.063 38.5225 42.063C39.7021 42.063 40.662 42.9878 40.662 44.1241C40.662 45.2605 39.7021 46.1853 38.5225 46.1853ZM14.97 37.7848C14.97 36.7524 15.8419 35.9134 16.9135 35.9134C17.9842 35.9134 18.8561 36.7524 18.8561 37.7848C18.8561 38.8172 17.9842 39.6562 16.9135 39.6562C15.8419 39.6562 14.97 38.8172 14.97 37.7848ZM24.6091 37.3617C24.6622 37.6498 24.7341 37.938 24.824 38.2262C24.3602 38.0447 23.8916 37.8861 23.4315 37.752C23.8215 37.6371 24.2163 37.5103 24.6091 37.3617ZM21.9035 41.3507L20.1815 39.6918C20.3254 39.4638 20.439 39.2203 20.5299 38.965C21.5883 39.1391 22.6164 39.3945 23.5205 39.7009C22.8625 40.1752 22.3134 40.7297 21.9035 41.3507ZM18.8287 40.9677L21.1282 43.1829C21.0619 43.5067 21.0231 43.8378 21.0231 44.1752C21.0231 45.7885 21.8079 47.2733 23.1437 48.3759C22.2027 48.0831 21.2806 47.5514 20.51 46.8091C19.3248 45.6672 18.556 43.2523 18.1954 41.2522C18.4169 41.1756 18.627 41.0808 18.8287 40.9677ZM27.1339 46.4908C26.6805 46.9276 26.2867 47.4028 25.944 47.8998C24.0904 47.1565 22.9165 45.7457 22.9165 44.1752C22.9165 42.6093 24.0856 41.2012 25.9326 40.4561C26.262 40.9294 26.6407 41.3854 27.0809 41.8095C28.269 42.954 30.1075 43.6909 31.7774 44.1579C30.1236 44.6257 28.3078 45.359 27.1339 46.4908ZM34.7046 42.9312C32.4534 42.5646 29.7137 41.7657 28.4186 40.519C26.1371 38.3202 25.695 35.1683 27.434 33.493C28.2463 32.7105 29.4268 32.3621 30.7692 32.5062C32.1883 32.6621 33.5932 33.3498 34.7273 34.4414C36.0138 35.6808 36.8422 38.3056 37.2256 40.4634C36.0299 40.8592 35.0965 41.7721 34.7046 42.9312ZM35.8075 20.5562C36.0934 20.7304 36.4058 20.8617 36.7343 20.963C36.3471 23.1782 35.5026 25.8723 34.1792 27.1463C32.1258 29.1245 29.2905 29.6899 27.4303 28.6256L35.8075 20.5562ZM40.0713 20.5936L48.4258 28.642C47.6968 29.0159 46.8212 29.1746 45.8622 29.0688C44.4156 28.9102 42.9814 28.2088 41.8246 27.0944C40.5106 25.8294 39.6652 23.139 39.277 20.9447C39.5563 20.8545 39.8223 20.7386 40.0713 20.5936ZM31.3296 30.7478C32.1533 30.5527 32.9712 30.2243 33.7494 29.7674C33.4322 30.1897 33.152 30.6521 32.9201 31.161C32.4003 30.9685 31.8674 30.8317 31.3296 30.7478ZM38.4695 29.0898C40.095 29.0898 41.5576 30.2152 42.3301 31.9945C41.8388 32.3119 41.3654 32.6767 40.9252 33.1008C39.7381 34.2453 38.9732 36.0174 38.4875 37.6252C38.0019 36.032 37.2407 34.2837 36.0659 33.1519C35.6124 32.715 35.1192 32.3356 34.6033 32.0055C35.3758 30.2207 36.8403 29.0898 38.4695 29.0898ZM36.0498 27.8422C36.969 26.6958 37.5948 25.1819 38.0104 23.7874C38.3805 25.0141 38.9126 26.3365 39.6671 27.4126C39.277 27.326 38.8794 27.2658 38.4695 27.2658C37.6147 27.2658 36.8015 27.4801 36.0498 27.8422ZM44.0095 31.1391C43.8874 30.8719 43.7473 30.6229 43.6005 30.3794C44.1051 30.5727 44.623 30.7114 45.1455 30.8026C44.765 30.8883 44.3853 30.9977 44.0095 31.1391ZM39.7599 40.446C40.1404 38.2782 40.9707 35.6371 42.2638 34.3904C44.5463 32.1924 47.818 31.7674 49.5571 33.441C50.3703 34.2244 50.7338 35.3653 50.5814 36.6539C50.4195 38.0201 49.7057 39.3744 48.5725 40.467C47.286 41.7064 44.5605 42.5053 42.3216 42.8729C41.9117 41.7228 40.964 40.8236 39.7599 40.446ZM52.3488 37.5368C52.6395 37.6389 52.9311 37.7347 53.2169 37.8186C52.8752 37.9198 52.5297 38.0338 52.1832 38.1606C52.2476 37.9545 52.3034 37.7456 52.3488 37.5368ZM49.9111 41.7575C50.3646 41.3206 50.7584 40.8455 51.1011 40.3485C52.9547 41.0917 54.1286 42.5026 54.1286 44.0731C54.1286 45.639 52.9604 47.0471 51.1144 47.7922C50.7802 47.3152 50.3996 46.8592 49.9641 46.4397C48.777 45.2951 46.9367 44.5592 45.2686 44.0913C46.9215 43.6225 48.7372 42.8893 49.9111 41.7575ZM52.5155 51.3353C52.4814 51.0508 52.4236 50.769 52.3555 50.4872C53.0967 50.447 53.8437 50.2865 54.5688 50.0157C54.8594 50.6367 55.222 51.1912 55.6433 51.67C54.5319 52.0786 53.6401 52.3431 52.5382 52.6404C52.5742 52.2181 52.5685 51.7822 52.5155 51.3353ZM53.7916 48.3531C55.1917 47.2423 56.0229 45.7274 56.0229 44.0722C56.0229 42.333 55.1018 40.7534 53.571 39.6307C54.3691 39.3817 55.2381 39.1784 56.145 39.0279C56.5398 40.0821 57.4117 40.9066 58.5155 41.2677C58.1567 43.2769 57.3871 45.7083 56.1962 46.8565C55.4833 47.5432 54.6512 48.0485 53.7916 48.3531ZM59.7415 39.6562C58.6698 39.6562 57.798 38.8172 57.798 37.7848C57.798 36.7524 58.6698 35.9134 59.7415 35.9134C60.8122 35.9134 61.6841 36.7524 61.6841 37.7848C61.6841 38.8172 60.8122 39.6562 59.7415 39.6562ZM49.8032 27.3898L41.426 19.3205C41.6059 19.045 41.7432 18.7441 41.8482 18.4285C44.1411 18.7997 46.9452 19.615 48.2677 20.8891C50.3201 22.8654 50.908 25.5969 49.8032 27.3898ZM34.4849 19.2512L26.1267 27.3032C25.1327 25.5102 25.7347 22.8681 27.736 20.9402C29.051 19.6743 31.839 18.8599 34.1195 18.4851C34.2151 18.755 34.3354 19.0113 34.4849 19.2512ZM23.973 26.9484C24.2172 27.8714 24.683 28.7168 25.3958 29.4026C26.2374 30.2134 27.3062 30.6968 28.4697 30.881C27.5666 31.1272 26.7562 31.5677 26.0954 32.2043C25.1961 33.0707 24.6868 34.1915 24.54 35.4054C23.4362 35.8979 22.0086 36.2946 20.51 36.5418C20.4314 36.3311 20.333 36.1314 20.2175 35.9398L22.2036 34.0265C22.5738 33.6699 22.5738 33.0935 22.2036 32.7369C21.8335 32.3803 21.2352 32.3803 20.865 32.7369L18.8931 34.6366C18.6573 34.4989 18.4055 34.3885 18.1405 34.3019C18.4983 32.29 19.267 29.8623 20.4598 28.7132C21.4699 27.7391 22.712 27.1245 23.973 26.9484ZM16.9637 51.8041C15.4803 51.8041 14.1426 50.7854 13.4231 49.1702C13.8719 48.8766 14.3026 48.5355 14.7059 48.147C15.7794 47.1128 16.4866 45.5368 16.9457 44.0758C17.4049 45.5222 18.1092 47.0763 19.1704 48.0986C19.5879 48.5008 20.0376 48.8519 20.5081 49.1566C19.7905 50.7808 18.451 51.8041 16.9637 51.8041ZM27.488 54.8064C26.6748 54.023 26.3113 52.8821 26.4637 51.5934C26.6256 50.2272 27.3394 48.8729 28.4726 47.7803C29.7581 46.5409 32.4865 45.742 34.7235 45.3745C35.1334 46.5263 36.081 47.4256 37.2852 47.8031C36.9047 49.9746 36.0773 52.6103 34.7822 53.8579C32.4978 56.0558 29.2261 56.4799 27.488 54.8064ZM38.5756 59.1585C36.952 59.1585 35.4903 58.034 34.7169 56.2574C35.2082 55.94 35.6796 55.5706 36.1208 55.1466C37.3089 54.002 38.0738 52.2327 38.5595 50.624C39.0451 52.2145 39.8062 53.9646 40.9801 55.0955C41.4336 55.5323 41.9268 55.9117 42.4428 56.2419C41.6693 58.0276 40.2048 59.1585 38.5756 59.1585ZM46.2759 55.7412C44.8568 55.5852 43.4519 54.8976 42.3178 53.8059C41.0312 52.5665 40.202 49.9354 39.8204 47.7849C41.0152 47.39 41.9486 46.4762 42.3405 45.317C44.5889 45.6827 47.3324 46.4826 48.6255 47.7293C49.7587 48.8218 50.4725 50.1762 50.6344 51.5423C50.7878 52.831 50.4233 53.9719 49.611 54.7553C48.7997 55.5378 47.6173 55.8898 46.2759 55.7412ZM59.7917 51.8041C58.3092 51.8041 56.9715 50.7854 56.2511 49.1684C56.7036 48.872 57.1343 48.5309 57.5338 48.147C58.6074 47.1128 59.3145 45.5368 59.7737 44.0758C60.2328 45.5222 60.9371 47.0763 61.9984 48.0986C62.4178 48.5026 62.8684 48.8538 63.337 49.1547C62.6185 50.7799 61.278 51.8041 59.7917 51.8041ZM70.0821 47.6983C68.4775 49.2441 65.4509 48.8456 63.3379 46.8091C62.1527 45.6672 61.384 43.2523 61.0233 41.2522C62.1215 40.8738 62.981 40.032 63.3578 38.9668C65.4453 39.3115 67.9672 40.053 69.1591 41.2012C70.2109 42.2144 70.8735 43.4702 71.0231 44.737C71.1651 45.9262 70.83 46.9769 70.0821 47.6983ZM74.2939 37.7374C74.2939 39.1665 73.2355 40.4561 71.5561 41.1492C71.2475 40.7133 70.8972 40.2965 70.4977 39.9116C69.4242 38.8774 67.7892 38.1961 66.2727 37.7538C67.7741 37.3115 69.3872 36.633 70.4475 35.6106C70.8631 35.2102 71.2257 34.7752 71.5428 34.3201C73.2298 35.0114 74.2939 36.3028 74.2939 37.7374ZM70.0319 27.823C70.7798 28.5435 71.1149 29.5951 70.9729 30.7843C70.8234 32.0511 70.1616 33.3069 69.1089 34.3201C67.9246 35.461 65.4169 36.2016 63.3398 36.5491C62.947 35.4902 62.0732 34.663 60.9674 34.3001C61.3253 32.2891 62.094 29.8605 63.2868 28.7113C65.4017 26.6757 68.4283 26.2772 70.0319 27.823ZM61.9492 27.4227C60.8756 28.4569 60.1684 30.0328 59.7084 31.4938C59.2492 30.0483 58.5449 28.4925 57.4837 27.471C57.069 27.0716 56.6193 26.7195 56.1469 26.4149C56.8645 24.8116 58.2287 23.7665 59.6913 23.7665C61.1757 23.7665 62.5143 24.787 63.2338 26.4049C62.7851 26.6976 62.3524 27.0342 61.9492 27.4227ZM57.3738 12.9657C58.3385 11.335 59.9914 11.0277 61.1227 11.4308C62.077 11.7718 62.9744 12.7377 62.6327 14.4249C62.5702 14.7368 62.6791 15.0569 62.9223 15.2721C63.1647 15.4864 63.5055 15.5649 63.8226 15.4773C65.539 15.004 66.6135 15.7828 67.048 16.6702C67.563 17.7199 67.386 19.3351 65.7823 20.3994C63.0937 22.1832 58.6225 21.6588 57.0766 21.4089C56.6847 19.9461 55.7597 15.698 57.3738 12.9657ZM56.3429 23.1345C55.5666 23.7482 54.92 24.5809 54.459 25.5786C53.7263 25.3114 52.9708 25.15 52.2248 25.1171C52.1945 24.2863 52.0099 23.4336 51.6691 22.6018C53.0475 22.0182 54.1371 21.1381 54.8462 20.0802C55.0838 21.4327 55.3886 22.3775 55.4208 22.476C55.5231 22.7842 55.7872 23.0168 56.1138 23.0879C56.1384 23.0934 56.2274 23.1117 56.3429 23.1345ZM53.8721 17.18C53.8721 18.7842 52.6726 20.2252 50.7802 20.9849C50.4441 20.5006 50.0569 20.0337 49.6063 19.5995C48.387 18.4249 46.4898 17.6725 44.7792 17.1982C46.4737 16.7231 48.3453 15.9753 49.5514 14.8134C50.0153 14.3665 50.4176 13.8804 50.7669 13.3715C52.6679 14.1275 53.8721 15.5712 53.8721 17.18ZM48.5186 5.83746L40.1414 13.9078C39.8555 13.7336 39.5431 13.6022 39.2146 13.501C39.6018 11.2894 40.4471 8.59079 41.7687 7.31764C43.823 5.33769 46.6583 4.77316 48.5186 5.83746ZM37.9204 1.91769C39.5847 1.91769 41.0805 3.07228 41.87 4.89628C41.3673 5.22004 40.8826 5.59304 40.432 6.02716C39.2127 7.20181 38.4326 9.02855 37.9403 10.6765C37.4471 9.04405 36.6699 7.24103 35.4638 6.07914C34.9952 5.6277 34.4906 5.24284 33.9662 4.91087C34.7519 3.07866 36.2505 1.91769 37.9204 1.91769ZM34.1252 7.36871C35.4401 8.63548 36.2855 11.3186 36.6746 13.5183C36.3944 13.6095 36.1284 13.7253 35.8794 13.8704L27.5211 5.81831C29.3795 4.8598 32.122 5.43983 34.1252 7.36871ZM25.1696 13.4791C25.5056 13.9634 25.8928 14.4303 26.3435 14.8644C27.5628 16.0391 29.459 16.7915 31.1706 17.2657C29.477 17.7409 27.6044 18.4887 26.3984 19.6506C25.9298 20.1021 25.5303 20.5891 25.1857 21.0943C23.2847 20.3364 22.0796 18.8927 22.0796 17.284C22.0787 15.6798 23.2772 14.2379 25.1696 13.4791ZM9.64681 15.7573C10.034 15.1763 10.7298 14.6875 11.6784 14.6875C12.0769 14.6875 12.5209 14.7742 13.0047 14.9757C13.3086 15.1025 13.656 15.0687 13.9258 14.8845C14.1956 14.7021 14.3471 14.3975 14.3263 14.081C14.2127 12.3656 15.2322 11.5192 16.2244 11.3003C17.3992 11.0413 19 11.5511 19.7366 13.2885C20.972 16.1987 19.4847 20.2963 18.9006 21.6971C17.3386 21.7573 12.8286 21.7172 10.4013 19.6132C8.95573 18.3574 8.99644 16.734 9.64681 15.7573ZM16.8634 23.7656C18.3468 23.7656 19.6854 24.7861 20.4049 26.404C19.9524 26.7013 19.5207 27.0378 19.1212 27.4227C18.0477 28.4569 17.3396 30.0328 16.8804 31.4948C16.4213 30.0483 15.7169 28.4925 14.6557 27.471C14.2363 27.067 13.7848 26.7195 13.3152 26.4186C14.0347 24.7916 15.3752 23.7656 16.8634 23.7656ZM6.57293 27.8714C8.17756 26.3246 11.2032 26.725 13.3171 28.7597C14.5014 29.9006 15.2701 32.3174 15.6308 34.3165C15.4093 34.3931 15.1991 34.4879 14.9975 34.601L13.0104 32.6867C12.6402 32.3302 12.0419 32.3302 11.6718 32.6867C11.3016 33.0433 11.3016 33.6197 11.6718 33.9763L13.6437 35.876C13.4998 36.1031 13.3862 36.3466 13.2953 36.6029C11.2041 36.2572 8.68688 35.5158 7.495 34.3676C6.44324 33.3543 5.78056 32.0985 5.63098 30.8317C5.48993 29.6434 5.82505 28.5919 6.57293 27.8714ZM5.09895 34.4205C5.40756 34.8564 5.75784 35.2732 6.15734 35.658C7.23088 36.6922 8.86485 37.3744 10.3833 37.8177C8.88379 38.26 7.2678 38.9385 6.20751 39.9599C5.79192 40.3603 5.42934 40.7953 5.1122 41.2504C3.42521 40.5582 2.36114 39.2668 2.36114 37.8332C2.36114 36.4031 3.41953 35.1136 5.09895 34.4205Z" fill="#1D1D1D"/>
</svg>
