<svg width="127" height="71" viewBox="0 0 127 71" fill="none" xmlns="http://www.w3.org/2000/svg">
<path d="M24.433 71C22.7897 71 21.1833 70.5161 19.8169 69.6096C18.4505 68.703 17.3855 67.4145 16.7566 65.907C16.1277 64.3994 15.9632 62.7406 16.2838 61.1402C16.6044 59.5398 17.3957 58.0698 18.5578 56.916C19.7198 55.7621 21.2003 54.9764 22.8121 54.658C24.4238 54.3397 26.0945 54.5031 27.6127 55.1275C29.131 55.752 30.4286 56.8094 31.3416 58.1662C32.2546 59.5229 32.7419 61.118 32.7419 62.7497C32.7366 64.9362 31.8595 67.0316 30.3024 68.5777C28.7454 70.1238 26.6351 70.9947 24.433 71ZM24.433 56.5069C23.1895 56.5069 21.974 56.873 20.94 57.559C19.9061 58.245 19.1002 59.22 18.6244 60.3607C18.1485 61.5014 18.024 62.7567 18.2666 63.9677C18.5092 65.1787 19.108 66.2911 19.9873 67.1641C20.8666 68.0372 21.9868 68.6318 23.2065 68.8727C24.4261 69.1136 25.6902 68.9899 26.8391 68.5174C27.9879 68.0449 28.9699 67.2447 29.6607 66.2181C30.3516 65.1915 30.7203 63.9845 30.7203 62.7497C30.7203 61.9299 30.5577 61.1181 30.2417 60.3607C29.9257 59.6033 29.4626 58.9151 28.8788 58.3354C28.295 57.7557 27.6019 57.2958 26.8391 56.9821C26.0763 56.6683 25.2587 56.5069 24.433 56.5069V56.5069Z" fill="#1D1D1D"/>
<path d="M99.112 71C97.4687 71 95.8622 70.5161 94.4958 69.6096C93.1294 68.703 92.0645 67.4145 91.4356 65.907C90.8067 64.3994 90.6422 62.7406 90.9628 61.1402C91.2834 59.5398 92.0747 58.0698 93.2367 56.916C94.3987 55.7621 95.8792 54.9764 97.491 54.658C99.1028 54.3397 100.773 54.5031 102.292 55.1275C103.81 55.752 105.108 56.8094 106.021 58.1662C106.934 59.5229 107.421 61.118 107.421 62.7497C107.416 64.9362 106.538 67.0316 104.981 68.5777C103.424 70.1238 101.314 70.9947 99.112 71ZM99.112 56.5069C97.8685 56.5069 96.6529 56.873 95.619 57.559C94.585 58.245 93.7792 59.22 93.3033 60.3607C92.8274 61.5014 92.7029 62.7567 92.9455 63.9677C93.1881 65.1787 93.7869 66.2911 94.6662 67.1641C95.5455 68.0372 96.6658 68.6318 97.8854 68.8727C99.105 69.1136 100.369 68.9899 101.518 68.5174C102.667 68.0449 103.649 67.2447 104.34 66.2181C105.031 65.1915 105.399 63.9845 105.399 62.7497C105.399 61.9299 105.237 61.1181 104.921 60.3607C104.605 59.6033 104.142 58.9151 103.558 58.3354C102.974 57.7557 102.281 57.2958 101.518 56.9821C100.755 56.6683 99.9376 56.5069 99.112 56.5069V56.5069Z" fill="#1D1D1D"/>
<path d="M121.896 49.0196H45.5994C45.0233 49.0223 44.4523 48.9122 43.9191 48.6958C43.3858 48.4793 42.9007 48.1606 42.4914 47.758C42.0822 47.3554 41.7568 46.8767 41.5339 46.3492C41.311 45.8217 41.1949 45.2558 41.1923 44.6838V4.35596C41.1923 3.20069 41.6545 2.09273 42.4772 1.27583C43.2999 0.458931 44.4157 0 45.5792 0H121.855C123.017 0.00527993 124.13 0.465906 124.951 1.28167C125.773 2.09743 126.237 3.20232 126.242 4.35596V44.6838C126.242 45.8302 125.785 46.9301 124.97 47.7426C124.156 48.5552 123.05 49.0143 121.896 49.0196ZM45.5994 2.02743C45.2888 2.02478 44.9807 2.08291 44.6927 2.1985C44.4047 2.31409 44.1425 2.48488 43.9209 2.7011C43.6994 2.91733 43.523 3.17476 43.4016 3.45871C43.2803 3.74265 43.2165 4.04754 43.2139 4.35596V44.6838C43.2139 45.3066 43.4631 45.904 43.9067 46.3445C44.3503 46.7849 44.9519 47.0324 45.5792 47.0324H121.896C122.518 47.0324 123.114 46.787 123.554 46.3503C123.994 45.9137 124.241 45.3214 124.241 44.7038V4.37604C124.241 3.75315 123.992 3.15577 123.548 2.71532C123.104 2.27487 122.503 2.02743 121.875 2.02743H45.5994Z" fill="#1D1D1D"/>
<path d="M87.6897 63.4728H36.4212C35.5782 63.4664 34.7621 63.1775 34.1053 62.6528C33.4484 62.1281 32.9893 61.3984 32.8025 60.5822C32.3326 58.7371 31.2563 57.1004 29.744 55.9313C28.2317 54.7621 26.3699 54.1273 24.4532 54.1273C22.5366 54.1273 20.6747 54.7621 19.1624 55.9313C17.6501 57.1004 16.5738 58.7371 16.1039 60.5822C15.9171 61.3984 15.458 62.1281 14.8012 62.6528C14.1443 63.1775 13.3282 63.4664 12.4852 63.4728H6.11705C5.38542 63.4728 4.66108 63.3285 3.98616 63.0481C3.31123 62.7677 2.69919 62.3568 2.18562 61.8394C1.67206 61.322 1.26723 60.7084 0.994677 60.0342C0.722123 59.36 0.587285 58.6388 0.598005 57.9124V36.2329C0.602402 34.9719 0.878106 33.7263 1.40666 32.5796L8.32062 17.5445C8.74498 16.6251 9.42541 15.8455 10.2816 15.2978C11.1377 14.75 12.1338 14.4569 13.1523 14.4531H34.3188C35.7825 14.4531 37.1863 15.0305 38.2213 16.0582C39.2563 17.0859 39.8378 18.4798 39.8378 19.9332V50.3848H116.66C117.807 50.3848 118.907 50.8374 119.719 51.643C120.53 52.4486 120.986 53.5412 120.986 54.6805V59.0164C120.986 60.1983 120.513 61.3318 119.671 62.1675C118.83 63.0033 117.688 63.4728 116.498 63.4728H107.785V62.5092C107.728 60.4076 106.895 58.4 105.445 56.8682C103.994 55.3365 102.028 54.3874 99.9186 54.2015C97.8096 54.0157 95.7053 54.6059 94.0059 55.8601C92.3066 57.1143 91.1307 58.9449 90.7019 61.0037C90.5556 61.6931 90.1779 62.3128 89.6307 62.7613C89.0835 63.2098 88.3992 63.4606 87.6897 63.4728ZM24.4532 52.1513C26.8136 52.1522 29.1068 52.9313 30.9729 54.3664C32.839 55.8016 34.1723 57.8114 34.7635 60.0803C34.8445 60.4618 35.0517 60.8054 35.3521 61.0564C35.6525 61.3074 36.0289 61.4514 36.4212 61.4654H87.6897C87.9405 61.4605 88.1818 61.37 88.3733 61.2091C88.5647 61.0483 88.6946 60.8269 88.741 60.5822C89.1601 58.5926 90.1445 56.764 91.5776 55.3125C93.0106 53.8611 94.8325 52.8477 96.8275 52.3922H37.8162V19.9332C37.8162 19.0122 37.4477 18.1289 36.7918 17.4776C36.1359 16.8264 35.2463 16.4605 34.3188 16.4605H13.1725C12.5312 16.4696 11.9064 16.6644 11.375 17.021C10.8435 17.3776 10.4284 17.8804 10.1805 18.4678L3.24634 33.4026C2.83639 34.2908 2.6227 35.2559 2.61963 36.2329V57.9124C2.62494 58.8265 2.99299 59.7016 3.64394 60.348C4.2949 60.9943 5.17626 61.3598 6.09683 61.365H12.5054C12.8978 61.351 13.2741 61.207 13.5745 60.956C13.875 60.705 14.0821 60.3614 14.1631 59.98C14.7724 57.733 16.1108 55.7481 17.971 54.3328C19.8313 52.9175 22.1096 52.1507 24.4532 52.1513ZM109.685 61.4654H116.559C117.213 61.4654 117.84 61.2074 118.303 60.7481C118.765 60.2889 119.025 59.6659 119.025 59.0164V54.6605C119.025 54.0536 118.782 53.4715 118.35 53.0423C117.918 52.6132 117.332 52.3721 116.72 52.3721H101.396C103.561 52.8394 105.524 53.9675 107.01 55.5982C108.497 57.2288 109.432 59.2804 109.685 61.4654H109.685ZM25.3629 34.7073H8.96754C8.61305 34.7135 8.26257 34.6322 7.94751 34.4707C7.63244 34.3093 7.36265 34.0727 7.1623 33.7823C6.96195 33.4918 6.83731 33.1566 6.79954 32.8065C6.76178 32.4565 6.81207 32.1026 6.94591 31.7766L11.5754 20.5756C11.7385 20.178 12.0189 19.8387 12.3797 19.6023C12.7405 19.3659 13.1648 19.2433 13.5971 19.2507H25.3427C25.9111 19.2507 26.4561 19.4749 26.858 19.8739C27.2599 20.273 27.4856 20.8142 27.4856 21.3785V32.5795C27.4857 33.1404 27.2627 33.6786 26.8652 34.0771C26.4677 34.4755 25.9278 34.7021 25.3629 34.7073ZM13.6173 21.238L8.84624 32.5193L8.96754 32.6799H25.3629C25.3951 32.6799 25.426 32.6672 25.4487 32.6446C25.4715 32.6221 25.4842 32.5914 25.4842 32.5595V21.3584L13.6173 21.238Z" fill="#1D1D1D"/>
<path d="M90.0753 44.6839H89.7114C88.7538 44.4699 87.8244 44.1466 86.9418 43.7203C85.8815 43.2331 84.7784 42.8434 83.6465 42.5561C82.4305 42.489 81.2108 42.5495 80.0076 42.7367C76.7932 43.078 73.4777 43.4393 72.1232 41.994C71.3082 41.0909 70.7868 39.9644 70.6272 38.7622C70.5306 38.0463 70.2752 37.3607 69.8792 36.7548C69.1523 35.8997 68.3469 35.1134 67.4735 34.4062C65.8092 33.229 64.4283 31.7003 63.4302 29.9298L63.2887 29.5685C62.8135 28.6892 62.5252 27.7224 62.4417 26.7279C62.3583 25.7334 62.4814 24.7326 62.8035 23.7873C63.1251 23.045 63.5769 22.3654 64.1378 21.7799C64.4281 21.5306 64.6613 21.2225 64.8217 20.8763C64.9821 20.53 65.066 20.1537 65.0678 19.7726C65.0678 19.2707 65.0678 18.6284 65.0678 17.9057C64.8858 14.6538 64.7039 11.3015 66.584 10.4785L68.2619 9.77595C69.9875 9.10543 71.6747 8.34149 73.316 7.48757C74.7918 6.58426 78.0264 4.91815 78.1679 4.85793L79.0979 6.64448C79.0979 6.64448 75.7824 8.35073 74.3672 9.21389C72.6441 10.1257 70.8688 10.9367 69.0504 11.6428L67.4128 12.3253C66.8266 12.8071 67.0287 16.4404 67.1096 17.8054C67.1096 18.5481 67.1096 19.2507 67.1096 19.8127C67.124 20.4478 67.0056 21.0788 66.7621 21.6662C66.5185 22.2535 66.155 22.7844 65.6945 23.2252C65.2872 23.646 64.9586 24.1354 64.7241 24.6705C64.4974 25.3862 64.4217 26.1406 64.5017 26.8866C64.5817 27.6326 64.8157 28.3542 65.1891 29.0064L65.3306 29.3878C66.2486 30.7993 67.4204 32.0309 68.7875 33.0211C69.7819 33.7844 70.6963 34.6452 71.5167 35.5906C72.0825 36.4224 72.4554 37.3685 72.6084 38.3607C72.6791 39.1991 73.0033 39.9968 73.5384 40.6491C74.1853 41.3517 77.7838 40.9703 79.7246 40.7695C81.1405 40.5355 82.5807 40.4815 84.0104 40.6089C85.2736 40.9077 86.5056 41.3244 87.6898 41.8535C88.4225 42.201 89.1876 42.4767 89.9742 42.6765C91.4404 42.5745 92.8452 42.0514 94.0175 41.171C94.5143 40.8434 94.8681 40.3415 95.0081 39.7659C95.603 37.1337 96.5409 34.5897 97.7979 32.1981C98.3033 31.0941 98.7683 30.0904 99.0917 29.2674L99.395 28.5247C99.2969 28.6534 99.1887 28.7742 99.0715 28.886C98.5535 29.3542 98.0066 29.79 97.434 30.1908C96.3992 30.8026 95.5315 31.6573 94.907 32.6799C94.7452 33.0814 94.5835 33.523 94.442 33.9847C94.2839 34.9767 93.8871 35.9162 93.2853 36.7235C92.6835 37.5307 91.8944 38.1819 90.985 38.6217C88.9634 39.3242 83.1007 40.3881 80.7152 38.9228C80.2906 38.6618 79.5628 38.3005 78.6935 37.8789C74.4683 35.8716 70.607 33.7438 69.9399 31.2948C69.3741 29.1199 68.9754 26.9054 68.7471 24.6705C68.6258 23.7873 68.5247 22.8639 68.3832 21.9004C68.1194 20.3372 68.3702 18.7312 69.0986 17.3209C69.827 15.9106 70.9941 14.7711 72.4265 14.0717C74.3234 13.4088 75.9541 12.1556 77.0762 10.4986C77.6288 8.7792 78.8319 7.33989 80.4321 6.48389C81.9352 6.01422 83.5067 5.79712 85.0819 5.84154C85.8739 5.82741 86.6642 5.76035 87.4472 5.6408C87.8223 5.51431 88.1817 5.34595 88.5186 5.13896C89.4539 4.49043 90.6076 4.23105 91.733 4.41631C92.9864 4.69734 95.5337 5.6408 96.1604 7.18647L96.3423 7.66823C96.6752 8.76038 97.2099 9.78145 97.9192 10.6793L98.4044 10.9402C100.009 11.6829 101.436 12.7573 102.589 14.0918L103.034 14.7141C103.967 15.6717 104.624 16.8604 104.937 18.1562C105.25 19.4519 105.207 20.8074 104.813 22.0811C104.213 23.7444 103.476 25.3557 102.609 26.8987C102.043 27.9054 101.537 28.9444 101.093 30.0101C100.749 30.8532 100.285 31.897 99.7589 33.0412C98.6102 35.2384 97.728 37.5631 97.1308 39.9666C97.0445 40.5261 96.8439 41.0622 96.5415 41.542C96.239 42.0218 95.8411 42.4352 95.3719 42.7568C93.8318 43.8953 91.9916 44.5648 90.0753 44.6839ZM90.985 6.34337C90.4402 6.41499 89.9204 6.61455 89.4688 6.92551C88.9826 7.22543 88.4594 7.46158 87.9121 7.62808C86.9982 7.7939 86.0716 7.88121 85.1425 7.88904C83.8355 7.87996 82.5321 8.02825 81.261 8.33066C80.2704 8.79235 79.6841 9.53507 78.8755 11.3216C77.496 13.522 75.387 15.176 72.9117 15.9988C71.9872 16.5868 71.2557 17.4299 70.8068 18.4247C70.3579 19.4196 70.2112 20.5229 70.3846 21.5993C70.5261 22.5829 70.6474 23.6066 70.7687 24.4096C70.9817 26.5497 71.3602 28.6704 71.9009 30.7528C72.4063 32.5394 77.0964 34.7675 79.6235 36.0924C80.5736 36.5541 81.3621 36.9556 81.827 37.2366C83.1815 38.0797 88.0334 37.5377 90.3583 36.7548C91.5915 36.3333 92.0767 34.7475 92.5417 33.4025C92.7034 32.8806 92.8853 32.3587 93.0673 31.9171C93.8198 30.5531 94.9216 29.4105 96.2615 28.605C96.7702 28.254 97.2563 27.8719 97.717 27.4608C98.6649 25.7479 99.0066 23.7687 98.6874 21.8402C98.6874 21.3183 98.5661 21.2982 97.8788 20.7361C96.9198 19.9611 96.0272 19.1084 95.2102 18.1868C94.8868 17.8455 94.6037 17.4842 94.3409 17.163C94.4797 17.591 94.548 18.0383 94.5431 18.4879C94.5431 21.5792 94.2398 31.8368 90.2572 33.7839C86.2746 35.7311 74.4279 30.1707 72.9319 27.7619C71.4359 25.353 71.0316 21.7398 73.1138 19.873C74.048 19.0961 75.0648 18.423 76.1463 17.8656C77.1137 17.402 78.0118 16.8076 78.8148 16.0991C79.1787 15.7177 79.6235 15.1557 80.1087 14.5535C81.9888 12.2249 83.4443 10.5387 84.9808 10.3982C85.6161 10.2744 86.2387 10.093 86.8407 9.85625C88.6601 9.23397 90.8839 8.4511 92.2182 9.85625C92.8532 10.6195 93.3709 11.4718 93.7547 12.3855C94.522 14.0078 95.5156 15.5148 96.7062 16.8619C97.4545 17.7047 98.2728 18.4836 99.1524 19.1905C99.5614 19.4447 99.9092 19.785 100.171 20.1874C100.433 20.5897 100.603 21.0443 100.669 21.519C100.897 23.2944 100.759 25.0974 100.264 26.8184L100.709 25.9753C101.506 24.52 102.182 23.0028 102.731 21.4387C103.007 20.4781 103.016 19.4611 102.756 18.496C102.496 17.5309 101.977 16.654 101.255 15.9586L100.729 15.256C99.7374 14.2123 98.5581 13.3613 97.2521 12.7468L96.7467 12.4658C95.5469 11.3993 94.6951 10.0013 94.3005 8.4511L94.1185 7.98941C93.3105 7.17348 92.2632 6.63242 91.1265 6.44374L90.985 6.34337ZM90.2572 11.141C89.3133 11.2523 88.3886 11.4886 87.5078 11.8435C86.7644 12.1372 85.9919 12.3525 85.2032 12.4859C84.3743 12.4859 82.6155 14.7542 81.6855 15.9185C81.1599 16.5608 80.6747 17.163 80.2704 17.5846C79.3393 18.4622 78.2836 19.1994 77.1369 19.7726C76.1894 20.2544 75.295 20.833 74.4683 21.4989C73.2553 22.5628 73.599 25.1523 74.6503 26.8184C75.7015 28.4845 86.6587 33.3825 89.3677 32.0375C91.3893 31.0138 92.5214 24.4899 92.5214 18.5481C92.5214 17.1831 91.6117 16.882 89.0645 16.7415H88.1345C87.427 16.7415 86.5374 17.3838 85.6075 18.1266C84.7066 18.9551 83.6482 19.5967 82.4942 20.0135C80.4725 20.6157 77.521 22.7435 77.4805 24.0282C77.7838 25.2527 84.4956 28.7254 86.6385 29.2875C87.245 29.1068 88.1143 26.3768 88.5388 25.072L88.8421 24.1486C89.4081 22.4223 89.024 22.1413 87.71 21.3985L87.4472 21.238C86.942 21.1212 86.4182 21.1073 85.9075 21.197C85.3967 21.2867 84.9096 21.4782 84.4754 21.7599C83.8891 22.1011 83.6667 22.4424 83.6667 22.5628C83.6667 23.4661 85.1627 23.8475 85.1829 23.8475L84.7382 25.8549C83.9287 25.7264 83.1846 25.3359 82.6215 24.7442C82.0585 24.1525 81.7082 23.3927 81.6249 22.5829C81.6538 22.0256 81.8371 21.4871 82.1546 21.0266C82.4721 20.5662 82.9114 20.2017 83.4241 19.9733C84.1615 19.4957 85.0035 19.2008 85.8795 19.1134C86.7554 19.0261 87.6397 19.1489 88.458 19.4715L88.7208 19.6321C89.2095 19.8114 89.6545 20.0911 90.0267 20.453C90.399 20.8149 90.6901 21.2508 90.8809 21.7321C91.0718 22.2135 91.1581 22.7294 91.1342 23.2461C91.1103 23.7629 90.9768 24.2688 90.7424 24.7308L90.4392 25.6341C89.5092 28.5247 88.4176 31.7967 86.0927 31.1744C85.9916 31.1744 75.3174 27.1597 75.4185 23.9077C75.4185 21.1577 79.6235 18.6083 81.9079 17.8857C82.7902 17.5351 83.5992 17.0246 84.2934 16.3802C85.3451 15.2646 86.7988 14.6079 88.3367 14.5535H89.1858C90.6623 14.5448 92.1094 14.9633 93.3503 15.7579C92.8501 14.9586 92.3912 14.1345 91.9756 13.2888C91.6647 12.5682 91.2567 11.8929 90.7626 11.2815C90.6165 11.1772 90.4351 11.1339 90.2572 11.161L90.2572 11.141Z" fill="#1D1D1D"/>
</svg>
