<svg width="35" height="30" viewBox="0 0 35 30" fill="none" xmlns="http://www.w3.org/2000/svg">
<path d="M25.5405 0C23.195 0.00116514 20.934 0.873071 19.1989 2.44554C18.5394 3.03906 17.9675 3.72246 17.5 4.47548C17.0323 3.72235 16.4604 3.03867 15.8011 2.4446C14.0657 0.872785 11.8048 0.00126941 9.45946 0C4.24351 0 0 4.22763 0 9.42404C0 12.9317 1.09541 15.7005 3.66176 18.6832C7.39068 23.0182 16.8284 29.6339 17.2285 29.9138C17.3078 29.9699 17.4027 30 17.5 30C17.5973 30 17.6921 29.9699 17.7715 29.9138C18.1716 29.6339 27.6093 23.0182 31.3392 18.6832C33.9046 15.7005 35 12.9317 35 9.42404C35 4.22763 30.7565 0 25.5405 0ZM30.6212 18.0706C27.3151 21.9118 19.0996 27.816 17.5 28.9507C15.9004 27.816 7.68486 21.9118 4.37973 18.0706C1.9723 15.2726 0.945946 12.6866 0.945946 9.42404C0.945946 4.74689 4.76568 0.942404 9.45946 0.942404C11.5661 0.942404 13.5932 1.72366 15.1654 3.14292C15.9541 3.85354 16.6023 4.70508 17.0762 5.65348C17.237 5.9739 17.763 5.9739 17.9238 5.65348C18.3975 4.70523 19.0457 3.85396 19.8346 3.14386C21.3955 1.72843 23.4299 0.943504 25.5405 0.942404C30.2343 0.942404 34.0541 4.74689 34.0541 9.42404C34.0541 12.6866 33.0277 15.2726 30.6212 18.0706Z" fill="#7C17FC"/>
</svg>
