<svg width="27" height="28" viewBox="0 0 27 28" fill="none" xmlns="http://www.w3.org/2000/svg">
<path d="M13.5 16.059C15.9818 16.059 18 14.0332 18 11.5422C18 9.05117 15.9818 7.02539 13.5 7.02539C11.0182 7.02539 9 9.05117 9 11.5422C9 14.0332 11.0182 16.059 13.5 16.059ZM13.5 9.28379C14.7409 9.28379 15.75 10.2967 15.75 11.5422C15.75 12.7877 14.7409 13.8006 13.5 13.8006C12.2591 13.8006 11.25 12.7877 11.25 11.5422C11.25 10.2967 12.2591 9.28379 13.5 9.28379Z" fill="#1D1D1D"/>
<path d="M12.8475 24.8827C13.0379 25.0192 13.266 25.0926 13.5 25.0926C13.7339 25.0926 13.9621 25.0192 14.1525 24.8827C14.4945 24.6399 22.5326 18.8144 22.5 11.5424C22.5 6.56148 18.4624 2.50879 13.5 2.50879C8.5376 2.50879 4.49998 6.56148 4.49998 11.5367C4.46735 18.8144 12.5055 24.6399 12.8475 24.8827ZM13.5 4.76718C17.2226 4.76718 20.25 7.80586 20.25 11.548C20.2736 16.5594 15.3135 21.0592 13.5 22.5351C11.6876 21.0581 6.72635 16.5571 6.74998 11.5424C6.74998 7.80586 9.77735 4.76718 13.5 4.76718Z" fill="#1D1D1D"/>
</svg>
