<svg width="25" height="26" viewBox="0 0 25 26" fill="none" xmlns="http://www.w3.org/2000/svg">
<path fill-rule="evenodd" clip-rule="evenodd" d="M21.3574 4.2145C20.2043 3.05498 18.8323 2.13557 17.3209 1.50953C15.8095 0.883487 14.1888 0.563269 12.5527 0.567423C5.69189 0.567423 0.106766 6.14539 0.103993 13.0018C0.103993 15.1931 0.676648 17.3318 1.76511 19.2184L0 25.6607L6.59871 23.9306C8.42399 24.9232 10.4689 25.4437 12.5471 25.4446H12.5527C19.4121 25.4446 24.9972 19.8666 25 13.0102C25.0047 11.3764 24.6852 9.75783 24.06 8.24812C23.4347 6.73841 22.5162 5.36746 21.3574 4.2145ZM12.5527 23.3461H12.5485C10.6954 23.3463 8.87634 22.8482 7.28229 21.9042L6.90514 21.6798L2.98946 22.7062L4.03355 18.8929L3.78812 18.5023C2.75206 16.8545 2.20359 14.9477 2.20604 13.0018C2.20881 7.30337 6.84968 2.6673 12.5568 2.6673C13.916 2.66428 15.2623 2.93059 16.5178 3.45081C17.7733 3.97102 18.913 4.73482 19.871 5.69799C20.8342 6.65657 21.5976 7.79634 22.1171 9.05142C22.6366 10.3065 22.902 11.652 22.8979 13.0102C22.8951 18.7086 18.2543 23.3461 12.5527 23.3461ZM18.2279 15.6045C17.9159 15.448 16.3879 14.6973 16.1023 14.5934C15.818 14.4895 15.6114 14.4382 15.4035 14.7485C15.1955 15.0588 14.5992 15.7583 14.4176 15.9661C14.236 16.1738 14.0543 16.1988 13.7437 16.0436C13.4331 15.8885 12.4306 15.5602 11.2424 14.502C10.3175 13.6778 9.69355 12.6611 9.5119 12.3494C9.33026 12.0378 9.49249 11.8702 9.64918 11.7151C9.78922 11.5765 9.95977 11.3521 10.1151 11.1707C10.2704 10.9892 10.3217 10.8604 10.4257 10.6526C10.5297 10.4449 10.4783 10.2634 10.3993 10.1083C10.3217 9.95176 9.69909 8.42257 9.4398 7.80064C9.18883 7.1981 8.93232 7.27844 8.74097 7.27013C8.5428 7.26203 8.34447 7.25834 8.14613 7.25905C7.98841 7.26306 7.83323 7.29958 7.69031 7.36632C7.54738 7.43306 7.41981 7.52858 7.31557 7.64689C7.02994 7.95854 6.22711 8.70929 6.22711 10.2385C6.22711 11.7677 7.34191 13.2456 7.49721 13.4534C7.65251 13.6612 9.69077 16.7985 12.8106 18.1449C13.5538 18.4648 14.1334 18.656 14.584 18.8001C15.3286 19.0369 16.0066 19.0023 16.5432 18.9233C17.1408 18.8347 18.3832 18.1726 18.6425 17.4468C18.9018 16.721 18.9018 16.099 18.8241 15.9688C18.7465 15.8386 18.5371 15.7597 18.2279 15.6045Z" fill="#1D1D1D"/>
</svg>
