<svg width="50" height="50" viewBox="0 0 50 50" fill="none" xmlns="http://www.w3.org/2000/svg">
<path d="M24.9905 46.8274C26.5217 46.8274 27.7673 45.5818 27.7673 44.0507V31.3571C27.7673 29.8259 26.5217 28.5803 24.9905 28.5803C23.4594 28.5803 22.2138 29.8259 22.2138 31.3571V44.0507C22.2138 45.581 23.4602 46.8274 24.9905 46.8274ZM23.0072 31.3571C23.0072 30.2638 23.8973 29.3737 24.9905 29.3737C26.0838 29.3737 26.9739 30.2638 26.9739 31.3571V44.0507C26.9739 45.1439 26.0838 46.034 24.9905 46.034C23.8973 46.034 23.0072 45.1439 23.0072 44.0507V31.3571Z" fill="#1D1D1D"/>
<path d="M36.0975 46.8274C37.6287 46.8274 38.8742 45.5818 38.8742 44.0507V31.3571C38.8742 29.8259 37.6287 28.5803 36.0975 28.5803C34.5663 28.5803 33.3208 29.8259 33.3208 31.3571V44.0507C33.3208 45.581 34.5671 46.8274 36.0975 46.8274ZM34.1141 31.3571C34.1141 30.2638 35.0043 29.3737 36.0975 29.3737C37.1907 29.3737 38.0809 30.2638 38.0809 31.3571V44.0507C38.0809 45.1439 37.1907 46.034 36.0975 46.034C35.0043 46.034 34.1141 45.1439 34.1141 44.0507V31.3571Z" fill="#1D1D1D"/>
<path d="M13.8837 46.8274C15.4149 46.8274 16.6604 45.5818 16.6604 44.0507V31.3571C16.6604 29.8259 15.4149 28.5803 13.8837 28.5803C12.3525 28.5803 11.107 29.8259 11.107 31.3571V44.0507C11.107 45.581 12.3533 46.8274 13.8837 46.8274ZM11.9003 31.3571C11.9003 30.2638 12.7905 29.3737 13.8837 29.3737C14.9769 29.3737 15.8671 30.2638 15.8671 31.3571V44.0507C15.8671 45.1439 14.9769 46.034 13.8837 46.034C12.7905 46.034 11.9003 45.1439 11.9003 44.0507V31.3571Z" fill="#1D1D1D"/>
<path d="M47.9977 17.4742H30.901L43.6787 4.69574C44.188 4.18641 44.4609 3.50255 44.4466 2.77028C44.4324 2.04992 44.1428 1.36843 43.6287 0.847996C43.6239 0.842442 43.6184 0.836889 43.6136 0.832129C43.0908 0.310104 42.4038 0.0149781 41.6779 0.000697764C40.9496 -0.0159626 40.2554 0.26647 39.7532 0.767867L23.0476 17.4742H1.98338C0.890139 17.4742 0 18.3644 0 19.4576V22.631C0 23.7242 0.890139 24.6144 1.98338 24.6144H2.41575L4.42531 46.0444C4.63713 48.2998 6.50468 50 8.76969 50H41.2129C43.478 50 45.3455 48.2991 45.5573 46.0444L47.5669 24.6136H47.9993C49.0925 24.6136 49.9826 23.7235 49.9826 22.6302V19.4568C49.9811 18.3636 49.0917 17.4742 47.9977 17.4742ZM40.3141 1.32877C40.6687 0.973345 41.1423 0.775801 41.6628 0.794048C42.1697 0.803568 42.6703 1.01777 43.0408 1.38113C43.0448 1.38589 43.0496 1.39065 43.0543 1.39541C43.4312 1.77225 43.6446 2.26571 43.6541 2.78615C43.6644 3.30024 43.4732 3.77942 43.1186 4.13564L29.6642 17.5909L26.394 20.8603C25.645 21.6092 24.3384 21.6092 23.5895 20.8603C22.8453 20.1161 22.812 18.9197 23.5133 18.1359C23.5149 18.1335 23.5149 18.1303 23.5165 18.1287L40.3141 1.32877ZM45.2067 41.2739H42.4442C42.2253 41.2739 42.0476 41.4517 42.0476 41.6706C42.0476 41.8896 42.2253 42.0673 42.4442 42.0673H45.1321L44.7664 45.9706C44.5934 47.8159 43.0654 49.2074 41.2122 49.2074H8.76969C6.91643 49.2074 5.38843 47.8159 5.21548 45.9706L3.51057 27.787H8.33097C8.54993 27.787 8.72764 27.6093 8.72764 27.3903C8.72764 27.1714 8.54993 26.9936 8.33097 26.9936H3.436L3.21307 24.6144H46.7688L45.2067 41.2739ZM49.1877 22.631C49.1877 23.2871 48.6538 23.821 47.9977 23.821H1.98338C1.32727 23.821 0.79335 23.2871 0.79335 22.631V19.4576C0.79335 18.8015 1.32727 18.2676 1.98338 18.2676H22.4804C21.9901 19.3021 22.1781 20.5723 23.0278 21.4204C24.0758 22.4692 25.9061 22.4692 26.9541 21.4204L30.1076 18.2668H47.9977C48.6538 18.2668 49.1877 18.8007 49.1877 19.4568V22.631Z" fill="#1D1D1D"/>
<path d="M24.9907 20.2515C25.429 20.2515 25.7843 19.8962 25.7843 19.4579C25.7843 19.0196 25.429 18.6643 24.9907 18.6643C24.5524 18.6643 24.1971 19.0196 24.1971 19.4579C24.1971 19.8962 24.5524 20.2515 24.9907 20.2515Z" fill="#1D1D1D"/>
<path d="M19.437 20.6468H4.36338C4.14442 20.6468 3.96671 20.8245 3.96671 21.0435C3.96671 21.2625 4.14442 21.4402 4.36338 21.4402H19.437C19.656 21.4402 19.8337 21.2625 19.8337 21.0435C19.8337 20.8245 19.6568 20.6468 19.437 20.6468Z" fill="#1D1D1D"/>
<path d="M45.6176 20.6468H31.3373C31.1184 20.6468 30.9406 20.8245 30.9406 21.0435C30.9406 21.2625 31.1184 21.4402 31.3373 21.4402H45.6176C45.8366 21.4402 46.0143 21.2625 46.0143 21.0435C46.0143 20.8245 45.8374 20.6468 45.6176 20.6468Z" fill="#1D1D1D"/>
<path d="M17.8507 15.8873C18.289 15.8873 18.6443 15.532 18.6443 15.0937C18.6443 14.6554 18.289 14.3 17.8507 14.3C17.4124 14.3 17.0571 14.6554 17.0571 15.0937C17.0571 15.532 17.4124 15.8873 17.8507 15.8873Z" fill="#1D1D1D"/>
<path d="M8.19367 3.56521L8.62366 3.72468C9.52967 4.05868 10.2413 4.77031 10.5769 5.67711L10.7364 6.10711C10.7943 6.2626 10.9426 6.36574 11.1084 6.36574C11.2742 6.36574 11.4226 6.2626 11.4805 6.10711L11.64 5.67711C11.9756 4.77031 12.6872 4.05868 13.594 3.72388L14.0224 3.56521C14.1787 3.5073 14.2818 3.35894 14.2818 3.19313C14.2818 3.02732 14.1787 2.87897 14.0224 2.82105L13.5924 2.66159C12.6864 2.32759 11.9748 1.61595 11.6392 0.709154L11.4797 0.279159C11.3639 -0.032628 10.8514 -0.032628 10.7356 0.279159L10.5761 0.709154C10.2405 1.61595 9.52887 2.32759 8.62207 2.66238L8.19367 2.82105C8.03738 2.87897 7.93424 3.02732 7.93424 3.19313C7.93345 3.35894 8.03738 3.5073 8.19367 3.56521ZM11.1068 1.46284C11.494 2.20303 12.0977 2.80677 12.8371 3.19313C12.0977 3.5795 11.4948 4.18323 11.1068 4.92343C10.7197 4.18323 10.116 3.5795 9.37655 3.19313C10.1167 2.80598 10.7197 2.20303 11.1068 1.46284Z" fill="#7C17FC"/>
<path d="M42.4434 10.3087L42.3006 10.3611C42.1443 10.4182 42.0403 10.5665 42.0403 10.7331C42.0403 10.8989 42.1443 11.0481 42.3006 11.1052L42.4418 11.1576C43.3486 11.4932 44.061 12.2048 44.395 13.11L44.4474 13.2528C44.5045 13.4083 44.6521 13.5122 44.8187 13.513H44.8195C44.9845 13.513 45.1328 13.4107 45.1907 13.2552L45.2439 13.11C45.5787 12.2048 46.2911 11.4924 47.1987 11.1568L47.3391 11.1044C47.4954 11.0473 47.5993 10.8989 47.5993 10.7323C47.5993 10.5657 47.4954 10.4174 47.3391 10.3603L47.1971 10.3087C46.2903 9.9731 45.5787 9.26067 45.2439 8.35546L45.1907 8.21107C45.1328 8.05637 44.9845 7.95323 44.8195 7.95323H44.8187C44.6528 7.95323 44.5045 8.05716 44.4474 8.21345L44.395 8.35546C44.061 9.26067 43.3494 9.9731 42.4434 10.3087ZM44.821 9.30034C45.1709 9.89059 45.6636 10.3833 46.2546 10.7339C45.6644 11.0838 45.1717 11.5765 44.8218 12.1667C44.472 11.5765 43.9793 11.0838 43.3882 10.7339C43.9785 10.3833 44.4712 9.89059 44.821 9.30034Z" fill="#7C17FC"/>
<path d="M17.7131 9.11867L18.7222 9.49313C19.6282 9.82713 20.3399 10.5388 20.6755 11.4456L21.0491 12.4547C21.1063 12.6102 21.2554 12.7133 21.4212 12.7133C21.587 12.7133 21.7354 12.6102 21.7933 12.4547L22.167 11.4456C22.5026 10.5388 23.2142 9.82713 24.1202 9.49313L25.1285 9.11946C25.284 9.06234 25.388 8.91398 25.388 8.74738C25.388 8.58078 25.2848 8.43321 25.1285 8.3753L24.1194 8.00084C23.2134 7.66684 22.5018 6.9552 22.1662 6.0484L21.7925 5.03926C21.6775 4.72827 21.1634 4.72827 21.0483 5.03926L20.6747 6.0484C20.3391 6.9552 19.6275 7.66684 18.7214 8.00084L17.7131 8.3745C17.5576 8.43162 17.4537 8.57998 17.4537 8.74658C17.4537 8.91319 17.5576 9.06075 17.7131 9.11867ZM18.9975 8.745C20.1209 8.33008 21.0031 7.44787 21.4196 6.3229L21.4212 6.31973L21.4228 6.3229C21.8385 7.44708 22.7215 8.33008 23.8441 8.74421L23.8489 8.74579L23.8441 8.74738C22.7207 9.1623 21.8385 10.0445 21.422 11.1695L21.4204 11.1726L21.4188 11.1695C21.0031 10.0453 20.1201 9.1623 18.9975 8.74817L18.9928 8.74658L18.9975 8.745Z" fill="#7C17FC"/>
<path d="M5.95036 11.1272C6.38867 11.1272 6.74399 10.7719 6.74399 10.3336C6.74399 9.89526 6.38867 9.53994 5.95036 9.53994C5.51206 9.53994 5.15674 9.89526 5.15674 10.3336C5.15674 10.7719 5.51206 11.1272 5.95036 11.1272Z" fill="#1D1D1D"/>
<path d="M28.5608 2.79702C28.9991 2.79702 29.3545 2.4417 29.3545 2.0034C29.3545 1.56509 28.9991 1.20977 28.5608 1.20977C28.1225 1.20977 27.7672 1.56509 27.7672 2.0034C27.7672 2.4417 28.1225 2.79702 28.5608 2.79702Z" fill="#1D1D1D"/>
<path d="M39.2711 14.6973C39.7094 14.6973 40.0647 14.3419 40.0647 13.9036C40.0647 13.4653 39.7094 13.11 39.2711 13.11C38.8328 13.11 38.4775 13.4653 38.4775 13.9036C38.4775 14.3419 38.8328 14.6973 39.2711 14.6973Z" fill="#1D1D1D"/>
<path d="M13.4873 9.93717C13.9256 9.93717 14.2809 9.58185 14.2809 9.14354C14.2809 8.70523 13.9256 8.34991 13.4873 8.34991C13.049 8.34991 12.6937 8.70523 12.6937 9.14354C12.6937 9.58185 13.049 9.93717 13.4873 9.93717Z" fill="#1D1D1D"/>
</svg>
