<svg width="36" height="51" viewBox="0 0 36 51" fill="none" xmlns="http://www.w3.org/2000/svg">
<path d="M32.7982 10.825H26.1584V8.27657C26.1584 6.06576 25.2979 3.9869 23.7347 2.42452C22.1715 0.862143 20.0919 0 17.8802 0C15.6694 0 13.5906 0.860524 12.0282 2.42371C10.4658 3.9869 9.60449 6.06495 9.60449 8.27576V10.8241H2.96477C2.75187 10.8241 2.5762 10.9885 2.56082 11.2006L0.00920009 47.0997C-0.0628475 48.1043 0.290914 49.1041 0.977391 49.8408C1.66387 50.5774 2.6361 51 3.64315 51H32.119C33.126 51 34.0974 50.5774 34.7839 49.84C35.472 49.1033 35.825 48.1035 35.7529 47.0989L33.2021 11.2006C33.1867 10.9893 33.0102 10.825 32.7982 10.825ZM10.4132 8.27657C10.4132 6.2819 11.1895 4.40705 12.5997 2.99686C14.0099 1.58667 15.8856 0.809524 17.8819 0.809524C19.8765 0.809524 21.7514 1.58586 23.1616 2.99605C24.5718 4.40624 25.3481 6.2819 25.3481 8.27576V10.8241H10.4132V8.27657ZM34.1913 49.2887C33.6579 49.8618 32.9026 50.1905 32.119 50.1905H3.64315C2.85953 50.1905 2.10425 49.8618 1.56915 49.2887C1.03406 48.7155 0.760438 47.9384 0.816295 47.1564L3.34039 11.6345H9.60287V15.746H9.02244C8.79901 15.746 8.61768 15.9274 8.61768 16.1508C8.61768 16.3742 8.79901 16.5556 9.02244 16.5556H10.9912C11.2146 16.5556 11.396 16.3742 11.396 16.1508C11.396 15.9274 11.2146 15.746 10.9912 15.746H10.4124V11.6345H25.3473V15.746H24.7701C24.5467 15.746 24.3653 15.9274 24.3653 16.1508C24.3653 16.3742 24.5467 16.5556 24.7701 16.5556H26.7389C26.9623 16.5556 27.1436 16.3742 27.1436 16.1508C27.1436 15.9274 26.9623 15.746 26.7389 15.746H26.1584V11.6345H32.4209L34.945 47.1564C35.0009 47.9384 34.7272 48.7155 34.1913 49.2887Z" fill="#1D1D1D"/>
<path d="M6.88686 46.189C6.45377 46.189 6.03605 46.0077 5.74219 45.6928C5.44753 45.3746 5.29615 44.9464 5.32691 44.5149C5.3431 44.2923 5.17472 44.098 4.95129 44.0826C4.74648 44.0656 4.53438 44.2348 4.519 44.4582C4.47286 45.1123 4.70276 45.7624 5.14962 46.244C5.59729 46.7241 6.22953 46.9993 6.88686 46.9993C7.11029 46.9993 7.29162 46.818 7.29162 46.5946C7.29162 46.3711 7.11029 46.189 6.88686 46.189Z" fill="#1D1D1D"/>
<path d="M25.7893 25.1592C24.6948 24.2501 23.0757 23.8267 21.4567 24.0258C20.0295 24.2015 18.778 24.8435 17.881 25.8489C16.9841 24.8435 15.7326 24.2015 14.3054 24.0258C12.6863 23.8283 11.0673 24.2509 9.9728 25.1592C7.90689 26.8762 7.87127 30.2794 9.87889 33.6163C11.4882 36.4828 15.8734 39.1267 17.6851 40.1305C17.7458 40.1645 17.813 40.1807 17.881 40.1807C17.949 40.1807 18.0162 40.1637 18.0769 40.1305C19.8878 39.1267 24.273 36.4828 25.8775 33.6268C27.89 30.2794 27.8544 26.8762 25.7893 25.1592ZM25.1781 33.2196C23.7226 35.8101 19.7332 38.2702 17.881 39.3129C16.0288 38.2702 12.0387 35.8093 10.5783 33.2091C8.77875 30.2179 8.74394 27.2332 10.4901 25.7817C11.2543 25.147 12.3771 24.7868 13.5339 24.7868C13.7573 24.7868 13.9832 24.8006 14.2066 24.8281C15.5925 24.9989 16.7817 25.674 17.5548 26.7305C17.707 26.9377 18.0559 26.9377 18.2081 26.7305C18.9812 25.674 20.1704 24.9989 21.5563 24.8281C22.9357 24.6565 24.3597 25.0232 25.2728 25.7817C27.0173 27.234 26.9825 30.2179 25.1781 33.2196Z" fill="#7C17FC"/>
</svg>
