<svg width="29" height="29" viewBox="0 0 29 29" fill="none" xmlns="http://www.w3.org/2000/svg">
<path d="M2.4165 10.875C2.4165 14.0797 3.68957 17.1531 5.95563 19.4192C8.2217 21.6853 11.2951 22.9583 14.4998 22.9583C17.7045 22.9583 20.778 21.6853 23.044 19.4192C25.3101 17.1531 26.5832 14.0797 26.5832 10.875" stroke="#7C17FC" stroke-width="2" stroke-linecap="round" stroke-linejoin="round"/>
<path d="M14.5 22.9583C14.5 19.7536 15.7731 16.6802 18.0391 14.4141C20.3052 12.1481 23.3786 10.875 26.5833 10.875" stroke="#7C17FC" stroke-width="2" stroke-linecap="round" stroke-linejoin="round"/>
<path d="M2.4165 10.875C4.00331 10.875 5.57458 11.1875 7.04059 11.7948C8.50661 12.402 9.83867 13.2921 10.9607 14.4141C12.0828 15.5362 12.9728 16.8682 13.58 18.3342C14.1873 19.8003 14.4998 21.3715 14.4998 22.9583" stroke="#7C17FC" stroke-width="2" stroke-linecap="round" stroke-linejoin="round"/>
<path d="M14.5 4.83331C15.7177 5.9958 16.6707 7.40696 17.2942 8.97079C17.9176 10.5346 18.1969 12.2144 18.1129 13.8958" stroke="#7C17FC" stroke-width="2" stroke-linecap="round" stroke-linejoin="round"/>
<path d="M10.8871 13.8958C10.8032 12.2144 11.0824 10.5346 11.7059 8.97079C12.3293 7.40696 13.2823 5.9958 14.5001 4.83331" stroke="#7C17FC" stroke-width="2" stroke-linecap="round" stroke-linejoin="round"/>
</svg>
