<svg width="24" height="23" viewBox="0 0 24 23" fill="none" xmlns="http://www.w3.org/2000/svg">
<path d="M8.36165 17.1742C12.9728 17.1742 16.7234 13.3225 16.7234 8.58781C16.7234 3.85245 12.9721 0 8.36165 0C3.75118 0 -9.34601e-05 3.85245 -9.34601e-05 8.58781C-9.34601e-05 13.3225 3.75118 17.1742 8.36165 17.1742ZM8.36165 0.619093C12.6405 0.619093 16.1211 4.19436 16.1211 8.58851C16.1211 12.982 12.6405 16.5565 8.36165 16.5565C4.0828 16.5565 0.602167 12.982 0.602167 8.58851C0.602167 4.19436 4.0828 0.619093 8.36165 0.619093Z" fill="#1D1D1D"/>
<path d="M1.91359 8.89735C1.99354 8.89735 2.07022 8.86474 2.12676 8.80669C2.1833 8.74864 2.21506 8.6699 2.21506 8.58781C2.21506 5.10682 4.97284 2.27447 8.36235 2.27447C8.4423 2.27447 8.51898 2.24185 8.57552 2.1838C8.63206 2.12575 8.66382 2.04702 8.66382 1.96492C8.66382 1.88282 8.63206 1.80409 8.57552 1.74604C8.51898 1.68799 8.4423 1.65537 8.36235 1.65537C4.64054 1.65537 1.6128 4.76491 1.6128 8.5871C1.61262 8.62778 1.62027 8.66809 1.6353 8.70573C1.65034 8.74336 1.67246 8.77757 1.70041 8.8064C1.72836 8.83523 1.76158 8.8581 1.79816 8.87371C1.83475 8.88932 1.87397 8.89735 1.91359 8.89735Z" fill="#1D1D1D"/>
<path d="M22.942 23C23.0031 22.9998 23.0627 22.9806 23.1129 22.9449C23.1631 22.9092 23.2015 22.8587 23.2232 22.8C23.2448 22.7414 23.2485 22.6773 23.2339 22.6164C23.2193 22.5555 23.1871 22.5006 23.1414 22.459L14.1548 14.3348C14.0944 14.2846 14.0174 14.2602 13.9399 14.2668C13.8625 14.2735 13.7905 14.3106 13.739 14.3704C13.6876 14.4302 13.6606 14.5082 13.6638 14.5879C13.6669 14.6677 13.7 14.7431 13.756 14.7984L22.7433 22.9226C22.7981 22.9725 22.8688 23.0001 22.942 23Z" fill="#1D1D1D"/>
</svg>
