<svg width="67" height="75" viewBox="0 0 67 75" fill="none" xmlns="http://www.w3.org/2000/svg">
<path fill-rule="evenodd" clip-rule="evenodd" d="M59.2312 52.084L46.6054 49.1758C44.7332 48.7124 42.502 47.7706 42.502 45.9121V42.2644C44.2635 40.6797 45.7524 38.4918 46.7261 36.0437C47.2479 34.7316 47.7044 33.3502 48.0854 31.928C49.4414 31.1146 50.2324 29.3776 50.2324 27.9724C50.2324 26.5229 49.6608 25.8913 49.1656 25.4062C49.1645 24.4326 49.16 24.0714 49.1567 23.709C49.1556 23.6408 49.1556 23.5715 49.1545 23.4988L49.1656 23.4954V14.6721C49.1656 7.10863 43.1656 0.956055 35.7897 0.956055H31.7063C24.2186 0.956055 18.1267 7.10863 18.1267 14.6721V18.6947C18.0978 19.399 18.1034 20.1079 18.1267 20.8201V21.2257C18.1222 21.7823 18.1233 22.1902 18.1267 22.5105V23.7601H18.1399C18.1411 24.1748 18.1344 24.7098 18.1111 25.6073C17.5772 26.1219 17.0222 26.758 17.0222 28.2644C17.0222 29.7934 18.0945 31.3372 19.558 32.0359C19.8748 33.2764 20.2359 34.5646 20.6558 35.9517C21.4335 38.5168 22.8515 40.7104 24.7769 42.3326V45.911C24.7769 48.0626 21.9974 48.9816 20.7965 49.2792L7.45945 52.6543C3.24087 53.6983 0.404846 57.1528 0.404846 61.2481V73.7441C0.404846 74.3712 0.90115 74.8801 1.51267 74.8801H65.7663C66.3778 74.8801 66.8741 74.3712 66.8741 73.7441V60.5847C66.8741 56.6928 63.7378 53.1984 59.2312 52.084ZM45.4954 51.207L40.2255 54.2958L36.6007 52.6281C36.5619 52.6032 36.532 52.5679 36.4899 52.5464C36.9408 52.1215 37.4626 51.7591 38.0641 51.4876L41.8384 49.7927C41.9592 49.7382 42.0589 49.6575 42.1497 49.5689C42.9939 50.2505 44.115 50.8037 45.4954 51.207ZM26.9925 45.9121V44.0343C29.4286 45.6508 31.6177 46.4642 33.6306 46.4801C33.6528 46.4801 33.6738 46.4801 33.696 46.4801C36.152 46.4801 38.3012 45.4021 40.2864 44.0241V45.9121C40.2864 46.596 40.437 47.231 40.714 47.8172L37.1756 49.4065C36.0612 49.9063 35.1184 50.6401 34.3728 51.5319L26.5838 47.8308C26.8485 47.239 26.9925 46.5983 26.9925 45.9121ZM31.7074 3.22806H35.7909C41.9448 3.22806 46.951 8.36277 46.951 14.6721V16.1432C46.2797 15.7661 45.5463 15.373 44.7509 14.9913C44.1981 14.7289 43.5378 14.9709 43.2786 15.54C43.0205 16.108 43.2587 16.7851 43.8137 17.0498C44.9957 17.6166 46.0504 18.2176 46.951 18.747V21.7051C44.8107 22.03 43.2188 21.0917 41.3964 19.9329C39.45 18.6958 37.2443 17.294 33.7425 17.294C33.7414 17.294 33.7414 17.294 33.7403 17.294C30.1864 17.3213 27.5642 18.5675 25.251 19.6671C23.5539 20.4737 22.0472 21.1905 20.3434 21.4143V18.7379C24.511 16.2784 27.48 14.6721 33.6395 14.6721C35.7776 14.6721 37.7949 14.9493 39.8078 15.5196C40.3994 15.6854 41.0087 15.3333 41.1704 14.7278C41.3333 14.1223 40.9876 13.4964 40.3983 13.3305C38.2203 12.7125 35.9459 12.4001 33.6395 12.4001C27.4855 12.4001 24.1687 13.9133 20.3434 16.1217V14.6721C20.3434 8.46842 25.5468 3.22806 31.7074 3.22806ZM22.7717 35.278C22.2976 33.7137 21.901 32.2824 21.5609 30.9033C21.4623 30.508 21.1676 30.1978 20.7843 30.0876C19.9756 29.8559 19.2378 28.9869 19.2378 28.2644C19.2378 27.6327 19.3054 27.5691 19.7407 27.1545L19.9756 26.9284C20.1839 26.7228 20.3046 26.4411 20.3124 26.1457C20.3489 24.8689 20.3578 24.1998 20.3567 23.6942C22.5302 23.4591 24.3836 22.5844 26.1827 21.7301C28.395 20.6782 30.6838 19.5899 33.8333 19.5671C36.614 19.5671 38.3699 20.6827 40.2288 21.8653C41.9182 22.9388 43.6652 24.0498 46.0393 24.0498C46.3351 24.0498 46.6386 24.0191 46.9433 23.9839C46.9466 24.3429 46.9499 24.8155 46.9499 25.889C46.9499 26.1878 47.0651 26.4729 47.2679 26.6853C47.3687 26.7898 47.4662 26.8853 47.5603 26.9761C47.9558 27.3601 48.0168 27.4203 48.0168 27.9724C48.0168 28.813 47.4141 29.8275 46.776 30.0592C46.4293 30.1853 46.1678 30.4796 46.0747 30.8431C45.6925 32.3483 45.2217 33.8092 44.6745 35.1849C43.7638 37.4716 42.3514 39.4835 40.6974 40.8512C40.6509 40.8899 40.6276 40.9467 40.5888 40.9921C38.0353 42.9801 35.9493 44.2081 33.696 44.2081C33.6805 44.2081 33.6649 44.2081 33.6483 44.2081C31.6864 44.1911 29.4087 43.1539 26.6934 41.0489C26.6436 40.9898 26.6103 40.9194 26.5483 40.8717C24.7736 39.5096 23.4675 37.5761 22.7717 35.278ZM25.199 49.6166C25.2688 49.6757 25.333 49.7416 25.4194 49.7825L30.9286 52.3998L27.0402 54.2878L21.9398 51.299C23.278 50.898 24.3737 50.3278 25.199 49.6166ZM64.6584 72.6081H2.62049V61.2481C2.62049 58.2218 4.77298 55.6556 7.98455 54.8615L18.8578 52.1101L26.4431 56.5542C26.6126 56.6541 26.802 56.7041 26.9925 56.7041C27.1543 56.7041 27.316 56.6678 27.4667 56.5951L33.0335 53.8914C32.7166 54.7672 32.5305 55.7067 32.5305 56.6928V67.779C32.5305 68.4072 33.0257 68.915 33.6384 68.915C34.251 68.915 34.7462 68.4072 34.7462 67.779V56.6928C34.7462 55.8953 34.9024 55.1489 35.1771 54.4651L39.8333 56.6053C39.9784 56.6712 40.1324 56.7041 40.2864 56.7041C40.4769 56.7041 40.6664 56.6541 40.8359 56.5542L48.5906 52.0102C48.6083 51.9999 48.6172 51.9829 48.6349 51.9715L58.7283 54.2958C62.1647 55.1467 64.6584 57.7913 64.6584 60.5847V72.6081Z" fill="#1D1D1D"/>
<path fill-rule="evenodd" clip-rule="evenodd" d="M33.6472 11.264C36.0478 11.264 38.6324 10.3756 38.6324 8.42398C38.6324 6.47234 36.0478 5.58398 33.6472 5.58398C31.2465 5.58398 28.662 6.47234 28.662 8.42398C28.662 10.3756 31.2465 11.264 33.6472 11.264ZM33.6472 7.85598C35.0153 7.85598 35.8861 8.18883 36.2583 8.42398C35.885 8.658 35.0153 8.99198 33.6472 8.99198C32.279 8.99198 31.4083 8.658 31.036 8.42398C31.4083 8.18883 32.2779 7.85598 33.6472 7.85598Z" fill="#1D1D1D"/>
<path d="M37.5168 61.815C38.1287 61.815 38.6246 61.3064 38.6246 60.679C38.6246 60.0516 38.1287 59.543 37.5168 59.543C36.905 59.543 36.409 60.0516 36.409 60.679C36.409 61.3064 36.905 61.815 37.5168 61.815Z" fill="#1D1D1D"/>
<path d="M37.5168 67.4952C38.1287 67.4952 38.6246 66.9865 38.6246 66.3591C38.6246 65.7318 38.1287 65.2231 37.5168 65.2231C36.905 65.2231 36.409 65.7318 36.409 66.3591C36.409 66.9865 36.905 67.4952 37.5168 67.4952Z" fill="#1D1D1D"/>
<path fill-rule="evenodd" clip-rule="evenodd" d="M28.3407 36.0684C27.9131 36.5171 27.9198 37.2351 28.3585 37.6747C29.5981 38.9209 31.5733 39.6639 33.6394 39.6639C35.7055 39.6639 37.6808 38.9209 38.9215 37.6747C39.3602 37.2351 39.3658 36.516 38.9392 36.0684C38.5094 35.6186 37.8082 35.6129 37.3728 36.0502C36.5353 36.8909 35.1394 37.3919 33.6394 37.3919C32.1394 37.3919 30.7436 36.8909 29.9072 36.0502C29.4707 35.6129 28.7695 35.6197 28.3407 36.0684Z" fill="#1D1D1D"/>
<path d="M27.5464 28.304C28.4642 28.304 29.2082 27.5411 29.2082 26.6C29.2082 25.6589 28.4642 24.896 27.5464 24.896C26.6287 24.896 25.8847 25.6589 25.8847 26.6C25.8847 27.5411 26.6287 28.304 27.5464 28.304Z" fill="#1D1D1D"/>
<path fill-rule="evenodd" clip-rule="evenodd" d="M39.7325 28.3042C40.6486 28.3042 41.3953 27.5385 41.3953 26.599C41.3953 25.6607 40.6486 24.895 39.7325 24.895C38.8174 24.895 38.0707 25.6607 38.0707 26.599C38.0707 27.5385 38.8174 28.3042 39.7325 28.3042Z" fill="#1D1D1D"/>
</svg>
