<svg width="74" height="73" viewBox="0 0 74 73" fill="none" xmlns="http://www.w3.org/2000/svg">
<path d="M70.2527 32.5704C71.0962 30.3359 70.793 27.9482 69.2401 26.4054C68.7908 25.9592 68.2661 25.6152 67.689 25.3689C69.1822 25.0213 70.3547 24.1673 70.9998 22.9328C71.9149 21.181 71.5373 19.0461 70.2233 17.3381C71.8662 15.8545 72.5416 13.8281 71.9499 11.9732C71.3618 10.1257 69.6444 8.85653 67.4547 8.57643C67.5577 6.40677 66.6268 4.41869 64.8461 3.50083C63.5431 2.83022 62.0049 2.82201 60.5173 3.48349C60.056 3.68786 59.6278 3.96797 59.218 4.28C57.723 2.64227 55.6794 1.9671 53.8067 2.55651C51.9488 3.14134 50.6706 4.84477 50.3867 7.01716C50.1129 7.00347 49.84 7.00712 49.5707 7.02628C49.3897 6.03817 48.9523 5.13582 48.242 4.43055C46.7323 2.93058 44.391 2.64045 42.206 3.46342C41.2274 1.33391 39.3841 0 37.3102 0C35.2271 0 33.3774 1.34577 32.4025 3.49079C30.2331 2.69519 27.9212 2.9908 26.4252 4.47708C25.7572 5.14038 25.3309 5.967 25.1306 6.86844C24.8301 6.84289 24.525 6.83925 24.219 6.85384C23.936 4.68145 22.657 2.97803 20.7972 2.39228C18.9309 1.80196 16.8828 2.47713 15.3878 4.11577C14.9779 3.80374 14.5507 3.52363 14.0894 3.31926C12.6026 2.65961 11.0654 2.66599 9.75966 3.33751C8.4567 4.00902 7.56539 5.25352 7.25297 6.84198C7.1519 7.35292 7.12157 7.88119 7.1473 8.41311C4.95947 8.69413 3.24393 9.96417 2.65585 11.8099C2.06318 13.6675 2.74315 15.6976 4.39069 17.1821C4.07643 17.589 3.79434 18.0141 3.58759 18.4722C2.92233 19.9493 2.92876 21.4757 3.60597 22.7704C4.27399 24.0487 5.5062 24.9246 7.07839 25.2448C6.31756 25.4811 5.62197 25.8807 5.04492 26.4537C3.47824 28.0084 3.18145 30.4253 4.05346 32.6771C1.81968 33.6771 0.41748 35.573 0.41748 37.7089C0.41748 39.8539 1.83163 41.7563 4.08103 42.7526C3.2375 44.9879 3.54073 47.3756 5.09362 48.9176C5.73408 49.5535 6.5289 49.9568 7.38897 50.1785L12.8903 72.3057C12.9932 72.7217 13.369 73 13.7816 73C13.8542 73 13.9286 72.9909 14.0021 72.9735C14.4946 72.8531 14.796 72.3586 14.6738 71.8696L9.32595 50.3564C10.0013 50.3071 10.6859 50.152 11.3585 49.8956C12.3647 52.1182 14.2759 53.5133 16.4288 53.5133C18.3291 53.5133 20.0354 52.4202 21.1031 50.6392C21.6287 50.9312 22.4897 51.3427 23.7982 51.8199C23.7449 53.3965 24.2457 54.8901 25.3447 55.9813C26.3674 56.9977 27.7521 57.5369 29.3032 57.5369C29.5604 57.5369 29.8232 57.5214 30.0897 57.4913C30.7476 57.4164 31.4 57.2504 32.0313 57.0022C33.0917 59.3763 35.1196 60.8698 37.4067 60.8698C39.7076 60.8698 41.7438 59.3589 42.7977 56.9612C43.6771 57.296 44.5794 57.4757 45.4514 57.4757C46.8444 57.4757 48.1465 57.0214 49.1646 56.1327C50.4721 56.2303 51.8358 56.3216 53.2609 56.4037L49.2546 71.8595C49.1278 72.3467 49.4246 72.8449 49.9162 72.9708C49.9925 72.99 50.0697 72.9991 50.1459 72.9991C50.5548 72.9991 50.9288 72.7254 51.0354 72.3139L55.321 55.7815C55.389 55.5169 55.3348 55.2349 55.1722 55.015C55.0086 54.7942 54.7559 54.6574 54.4803 54.6428C53.249 54.5771 52.0774 54.5032 50.9325 54.4256C52.5552 53.9813 53.7112 53.6428 55.4947 52.9184C55.5241 52.9065 55.5434 52.8828 55.571 52.8682C56.3153 53.2797 57.1367 53.5123 58.0005 53.5123C60.1617 53.5123 62.0784 52.1054 63.0809 49.8692C63.8941 50.1721 64.7266 50.3345 65.5325 50.3345C65.7613 50.3345 65.9827 50.3017 66.2069 50.2761L61.2487 71.8851C61.1357 72.3759 61.4453 72.865 61.9406 72.9763C62.0086 72.9927 62.0775 72.9991 62.1455 72.9991C62.5645 72.9991 62.9431 72.7126 63.0405 72.2892L68.2376 49.6374C68.6144 49.4258 68.9736 49.1822 69.2879 48.8701C70.8546 47.3154 71.1514 44.8985 70.2794 42.6467C72.5131 41.6468 73.9144 39.7508 73.9144 37.6149C73.9163 35.4681 72.5021 33.5667 70.2527 32.5704ZM67.0458 34.1953C65.8936 35.3385 63.4613 36.0785 61.4462 36.4252C61.0649 35.3659 60.2168 34.5384 59.1435 34.1752C59.4909 32.1625 60.237 29.7337 61.3948 28.5851C62.4156 27.5714 63.6809 26.9327 64.9572 26.7886C66.1591 26.6535 67.2149 26.9747 67.9408 27.6955C69.4983 29.242 69.0968 32.158 67.0458 34.1953ZM37.3571 46.0655C36.2122 46.0655 35.2804 45.1403 35.2804 44.0035C35.2804 42.8666 36.2122 41.9415 37.3571 41.9415C38.502 41.9415 39.4337 42.8666 39.4337 44.0035C39.4337 45.1403 38.5029 46.0655 37.3571 46.0655ZM27.2871 13.2634C28.3025 14.2725 29.8673 14.9275 31.2723 15.3491L24.502 17.2213C24.049 16.6465 23.8009 15.9996 23.8009 15.3317C23.8009 13.9778 24.7704 12.7533 26.3113 12.0891C26.5934 12.4997 26.9159 12.8938 27.2871 13.2634ZM50.0283 12.0544L54.1982 23.3407C54.2064 23.3635 54.2248 23.3781 54.2349 23.4C53.6698 23.9602 53.1874 24.6435 52.8263 25.4446C50.7506 24.6709 48.4911 25.0149 46.9097 26.3543C46.056 27.0769 45.0756 28.3615 44.9166 30.4965C44.8183 30.5038 44.7209 30.5047 44.6217 30.5157C43.9638 30.5905 43.3114 30.7565 42.6801 31.0047C41.6206 28.6307 39.5927 27.1371 37.3047 27.1371C35.0075 27.1371 32.9722 28.6444 31.9173 31.0366C30.2873 30.4153 28.5818 30.3679 27.1346 30.9116C26.383 29.0622 23.5758 22.2129 22.5301 19.6601L50.0283 12.0544ZM50.7653 37.4078C51.0519 37.5118 51.3377 37.6095 51.6198 37.6943C51.2835 37.7965 50.9444 37.9115 50.6035 38.041C50.6679 37.8303 50.7212 37.6195 50.7653 37.4078ZM54.4444 36.4735C53.1874 36.26 51.9451 35.9307 50.9472 35.5256C50.9325 35.5201 50.9178 35.5219 50.9031 35.5174C50.8103 34.1926 50.3095 32.9618 49.3686 32.0266C48.6564 31.3186 47.7679 30.8478 46.7718 30.6233C46.8665 29.4016 47.2984 28.4245 48.1042 27.7429C49.1866 26.8251 50.7689 26.6052 52.2318 27.1681C53.0404 27.4792 53.8122 27.9856 54.4637 28.6316C55.6123 29.773 56.3594 32.1917 56.7094 34.1917C55.6436 34.5703 54.8111 35.4097 54.4444 36.4735ZM55.7621 27.3415C55.3633 26.9455 54.925 26.5924 54.4628 26.2849C55.1611 24.66 56.4614 23.6354 57.9049 23.6354C59.3448 23.6354 60.6441 24.6563 61.3424 26.2749C60.9032 26.5723 60.4842 26.9099 60.0964 27.294C59.0544 28.3287 58.3671 29.9053 57.9214 31.3669C57.4749 29.9208 56.7912 28.3643 55.7621 27.3415ZM62.9716 25.4172C62.8255 25.0952 62.6619 24.7904 62.479 24.5049C62.5783 24.5651 62.6766 24.6262 62.7786 24.6782C63.1388 24.8634 63.51 25.0085 63.884 25.1344C63.5762 25.2101 63.2711 25.3023 62.9716 25.4172ZM58.9754 21.9411C59.0599 21.536 59.1049 21.1263 59.1233 20.744C59.4394 21.275 59.8226 21.8562 60.2618 22.4201C59.8547 22.202 59.4238 22.0405 58.9754 21.9411ZM59.6728 15.7898C59.8024 16.1967 59.7656 16.6291 59.5671 17.0078C59.3687 17.3864 59.0351 17.6665 58.6253 17.7952C57.7763 18.057 56.8739 17.5926 56.6065 16.7541C56.3391 15.9147 56.8087 15.016 57.654 14.7496C57.8158 14.6985 57.9793 14.6748 58.1392 14.6748C58.8201 14.6748 59.455 15.1109 59.6728 15.7898ZM55.3348 18.2559C55.8089 18.9156 56.5036 19.3745 57.2792 19.5752C57.3159 20.1044 57.3251 21.1509 57.0972 21.8836C56.6369 21.9602 56.1967 22.1117 55.775 22.3106L54.4435 18.7057C54.7532 18.5835 55.0518 18.4357 55.3348 18.2559ZM41.0528 31.866C40.5722 32.1881 40.1128 32.5548 39.6901 32.9755C38.5369 34.1205 37.7954 35.8923 37.324 37.5C36.8526 35.9069 36.1138 34.1579 34.9735 33.0265C34.5288 32.5849 34.0501 32.2081 33.552 31.8824C34.3009 30.0941 35.7224 28.9619 37.3056 28.9619C38.8833 28.9628 40.3021 30.0887 41.0528 31.866ZM23.8533 37.2372C23.9048 37.5255 23.9746 37.8148 24.0619 38.1021C23.6117 37.9197 23.1568 37.7618 22.7102 37.6277C23.0879 37.5127 23.4711 37.3859 23.8533 37.2372ZM25.295 32.0777C24.4221 32.9444 23.9278 34.0648 23.7853 35.2792C22.713 35.7728 21.3273 36.1697 19.8728 36.4179C19.4896 35.3632 18.6433 34.5384 17.5728 34.1762C17.9202 32.1634 18.6663 29.7337 19.8231 28.5851C20.8449 27.5705 22.1102 26.9318 23.3856 26.7876C23.4113 26.7849 23.4316 26.7703 23.4564 26.7648C24.4138 29.1042 25.2877 31.241 25.5395 31.8623C25.4586 31.9344 25.3731 32.0001 25.295 32.0777ZM37.3571 13.5188C37.4866 13.5188 37.6144 13.5334 37.7384 13.5608L36.1414 14.0024C36.4603 13.704 36.8866 13.5188 37.3571 13.5188ZM20.4397 19.4001C20.4627 19.4566 21.569 22.1546 22.7516 25.0432C22.2949 25.1235 21.8419 25.2475 21.3999 25.4172C20.5463 23.5396 19.0458 22.2595 17.299 21.9119C17.2944 21.8964 17.2972 21.8808 17.2917 21.8653C17.0243 21.161 17.0252 20.0615 17.0601 19.4767C17.9459 19.3216 18.7471 18.8271 19.2755 18.0899C19.6495 18.3271 20.0547 18.5014 20.4783 18.64C20.4755 18.6464 20.4691 18.6501 20.4654 18.6556C20.3506 18.8882 20.3405 19.1592 20.4397 19.4001ZM16.4702 14.5115C16.631 14.5115 16.7945 14.5352 16.9544 14.5863C17.8007 14.8527 18.2703 15.7523 18.0029 16.5908C17.7355 17.4311 16.8322 17.8992 15.9832 17.6319C15.1378 17.3654 14.6683 16.4667 14.9357 15.6264C15.1525 14.9467 15.7875 14.5115 16.4702 14.5115ZM15.2472 20.9648C15.2756 21.2741 15.3216 21.5925 15.3942 21.9046C15.0367 21.9739 14.6931 22.0925 14.3595 22.2376C14.6885 21.8133 14.9862 21.3799 15.2472 20.9648ZM11.2556 25.4474C10.9018 25.316 10.5435 25.2147 10.186 25.1399C10.7107 25.0048 11.228 24.8096 11.7297 24.5596C11.5551 24.8388 11.3962 25.1344 11.2556 25.4474ZM16.3351 23.6354C17.775 23.6354 19.0743 24.6563 19.7726 26.2749C19.3334 26.5723 18.9135 26.9099 18.5257 27.2949C17.4837 28.3296 16.7973 29.9053 16.3516 31.3669C15.906 29.9208 15.2224 28.3643 14.1932 27.3415C13.7862 26.9373 13.3479 26.5906 12.893 26.2886C13.5886 24.6618 14.8906 23.6354 16.3351 23.6354ZM16.382 35.7883C17.4221 35.7883 18.2684 36.6286 18.2684 37.6615C18.2684 38.6934 17.4221 39.5337 16.382 39.5337C15.3427 39.5337 14.4964 38.6934 14.4964 37.6615C14.4974 36.6286 15.3427 35.7883 16.382 35.7883ZM19.8939 38.8421C20.9203 39.0154 21.9182 39.2718 22.7957 39.5784C21.2832 40.7034 20.3726 42.2982 20.3726 44.0546C20.3726 45.6704 21.1344 47.1548 22.4318 48.2588C21.5175 47.966 20.6235 47.434 19.8737 46.6904C18.7251 45.549 17.9781 43.1321 17.628 41.1304C18.6939 40.7508 19.5282 39.9087 19.8939 38.8421ZM26.303 46.3702C25.8583 46.8118 25.4788 47.2871 25.1508 47.7817C23.3498 47.0381 22.2095 45.6266 22.2095 44.0546C22.2095 42.4871 23.3443 41.0784 25.1361 40.3329C25.4558 40.8065 25.8234 41.2627 26.2507 41.6869C27.4038 42.832 29.1883 43.5692 30.8083 44.0372C29.2058 44.5044 27.4434 45.2379 26.303 46.3702ZM33.6522 42.8091C31.468 42.4433 28.8079 41.644 27.5509 40.3959C25.3355 38.1961 24.9073 35.0429 26.5952 33.3669C28.2832 31.6908 31.4579 32.1169 33.6742 34.3167C34.9239 35.5566 35.7279 38.1834 36.0982 40.3411C34.9386 40.7362 34.0326 41.6495 33.6522 42.8091ZM38.559 40.3238C38.9274 38.1551 39.7324 35.5137 40.9885 34.2656C42.0893 33.1734 43.4538 32.4855 44.8303 32.3295C46.1268 32.1789 47.2781 32.532 48.0675 33.3167C49.7554 34.9927 49.3263 38.1459 47.1118 40.3457C45.8631 41.5856 43.2176 42.3831 41.0445 42.7526C40.6476 41.6002 39.7268 40.7015 38.559 40.3238ZM48.412 41.6358C48.8568 41.1942 49.2363 40.7189 49.5643 40.2244C51.3653 40.968 52.5047 42.3794 52.5047 43.9515C52.5047 45.5171 51.3708 46.9258 49.5799 47.6722C49.2556 47.195 48.8862 46.7388 48.4635 46.3191C47.3103 45.174 45.524 44.4368 43.905 43.9688C45.5084 43.5007 47.2708 42.7681 48.412 41.6358ZM50.9398 51.2168C50.9068 50.9321 50.8507 50.6493 50.7846 50.3683C51.504 50.3281 52.2281 50.1675 52.932 49.8975C53.2141 50.5188 53.566 51.0735 53.9749 51.5525C52.8961 51.9613 52.0306 52.2259 50.9619 52.5242C50.9968 52.1009 50.9913 51.6648 50.9398 51.2168ZM52.1812 48.2315C53.5375 47.1202 54.3424 45.6056 54.3424 43.9515C54.3424 42.2115 53.4484 40.6313 51.9635 39.5081C52.7381 39.2591 53.5816 39.0556 54.4619 38.905C54.8451 39.9598 55.6913 40.7837 56.7627 41.1459C56.4145 43.1549 55.6674 45.5883 54.5115 46.737C53.8214 47.4231 53.0137 47.9267 52.1812 48.2315ZM57.9536 39.5328C56.9134 39.5328 56.0672 38.6925 56.0672 37.6606C56.0672 36.6277 56.9134 35.7874 57.9536 35.7874C58.9928 35.7874 59.8391 36.6277 59.8391 37.6606C59.8382 38.6934 58.9919 39.5328 57.9536 39.5328ZM69.3688 22.0925C68.9562 22.8836 68.1568 23.4301 67.1184 23.6317C66.0011 23.8498 64.7615 23.6463 63.6249 23.0596C62.3541 22.4055 61.0768 20.5789 60.2333 18.9767C60.6275 18.6756 60.9611 18.2997 61.1972 17.849C61.4251 17.4129 61.5446 16.943 61.5721 16.4667C63.3648 16.2341 65.5949 16.2222 66.8566 16.8728C69.1335 18.0461 70.2601 20.3873 69.3688 22.0925ZM70.1994 12.5243C70.5688 13.6821 70.0607 15.037 68.9277 16.0397C68.5537 15.7478 68.1476 15.4814 67.7047 15.2533C66.6048 14.6867 65.1861 14.5088 63.8776 14.4978C64.9554 13.7351 66.0277 12.7707 66.6057 11.6649C66.8262 11.2424 66.9999 10.8109 67.1341 10.3775C68.652 10.5472 69.8245 11.3501 70.1994 12.5243ZM61.268 5.15042C62.2337 4.72069 63.2031 4.71065 64.0007 5.12122C65.7181 6.00715 66.1555 8.56457 64.9747 10.8245C64.315 12.0882 62.4818 13.3528 60.8627 14.1913C60.5595 13.7998 60.1809 13.4686 59.7261 13.2351C59.2878 13.0088 58.8155 12.8902 58.3349 12.8628C58.0997 11.0791 58.0887 8.86839 58.7438 7.61386C59.3328 6.48615 60.2296 5.61117 61.268 5.15042ZM54.3626 4.29643C55.5333 3.93147 56.8978 4.43785 57.9086 5.56555C57.6136 5.94055 57.3398 6.33835 57.1128 6.77447C56.5422 7.86659 56.364 9.27532 56.352 10.5755C55.5838 9.50524 54.6126 8.43957 53.4989 7.86568C53.0771 7.64853 52.6416 7.47609 52.2005 7.34015C52.3724 5.8338 53.1819 4.66868 54.3626 4.29643ZM52.6517 9.48608C53.9234 10.1412 55.2007 11.9659 56.0451 13.5708C55.1621 14.2469 54.6594 15.3126 54.71 16.4284C54.4306 16.6611 54.1302 16.8454 53.8058 16.9795L51.4618 10.6348C51.2964 10.1877 50.8158 9.93953 50.3527 10.0709L49.216 10.3857C49.4062 9.88114 49.5496 9.37294 49.6167 8.86839C50.6091 8.77624 51.6676 8.97788 52.6517 9.48608ZM46.9427 5.72157C48.1281 6.89855 48.14 8.99795 46.9712 10.8255C46.9308 10.8893 46.9161 10.9596 46.8931 11.0289L40.0733 12.9148C39.6579 12.4449 39.1241 12.1147 38.5415 11.913C38.8769 9.98789 39.5909 7.67225 40.6935 6.57739C42.6544 4.63036 45.4579 4.24716 46.9427 5.72157ZM37.3111 1.82477C38.6747 1.82477 39.9069 2.78734 40.5768 4.3165C40.1642 4.5966 39.7664 4.91776 39.3951 5.28636C38.4129 6.26079 37.7577 7.73156 37.3268 9.112C36.8958 7.74616 36.2443 6.29546 35.2749 5.33198C34.8881 4.94787 34.4727 4.61759 34.0409 4.32927C34.708 2.79281 35.9438 1.82477 37.3111 1.82477ZM27.7255 5.7681C29.2104 4.29278 32.0138 4.6778 33.9747 6.62392C35.0691 7.71057 35.783 10.0089 36.1212 11.9249C35.1068 12.2935 34.3128 13.0955 33.9554 14.1091C31.5222 13.6922 29.5191 12.8993 28.5874 11.9732C26.6265 10.0262 26.2406 7.24252 27.7255 5.7681ZM25.0295 8.70872C25.0883 9.29448 25.2298 9.88844 25.4522 10.4705C23.3075 11.4422 21.9641 13.2725 21.9641 15.3317C21.9641 15.9494 22.0937 16.5498 22.3289 17.1209C21.3604 17.1145 20.5684 16.8436 19.8985 16.2888C19.9573 15.1639 19.4528 14.0882 18.5634 13.4066C19.4078 11.8017 20.6851 9.97603 21.9568 9.32185C22.9547 8.80726 24.0261 8.60654 25.0295 8.70872ZM20.2431 4.13311C21.4266 4.50536 22.2352 5.67048 22.4061 7.17774C21.966 7.31369 21.5313 7.48613 21.1096 7.70236C19.9959 8.27534 19.0237 9.34192 18.2556 10.4121C18.2445 9.112 18.0663 7.70327 17.4947 6.61115C17.2668 6.17503 16.9939 5.77723 16.6981 5.40132C17.7107 4.2727 19.077 3.76177 20.2431 4.13311ZM9.05856 7.19234C9.26163 6.16134 9.81111 5.36757 10.6087 4.95791C11.4035 4.54733 12.3766 4.55828 13.3414 4.98619C14.3797 5.44694 15.2756 6.32192 15.8656 7.45146C16.5216 8.70507 16.5097 10.9176 16.2745 12.7022C15.2821 12.7606 14.3605 13.246 13.7503 14.0288C12.1313 13.1895 10.2963 11.9249 9.63561 10.6612C9.04386 9.53261 8.83895 8.30089 9.05856 7.19234ZM4.40906 12.3601C4.78396 11.1868 5.95552 10.3839 7.4735 10.2132C7.61041 10.6503 7.78408 11.0828 8.00277 11.5015C8.58074 12.6073 9.65399 13.5727 10.7327 14.3354C9.42335 14.3464 8.00277 14.5234 6.9038 15.089C6.46458 15.3153 6.06395 15.5872 5.68538 15.881C4.53311 14.8728 4.03324 13.5398 4.40906 12.3601ZM5.2388 21.9292C4.82531 21.1391 4.83634 20.1756 5.26729 19.2158C5.73132 18.1857 6.61252 17.2952 7.75008 16.7094C9.01078 16.0598 11.2418 16.0699 13.0382 16.3043C13.0961 17.2915 13.5849 18.2057 14.3752 18.8107C13.5316 20.4137 12.2526 22.2421 10.9827 22.8954C9.84695 23.4821 8.60647 23.6855 7.48912 23.4675C6.45172 23.2658 5.6523 22.7202 5.2388 21.9292ZM6.34605 27.7438C7.90262 26.1973 10.8412 26.5961 12.8921 28.6325C14.0407 29.7739 14.7877 32.1926 15.1378 34.1926C14.071 34.5712 13.2376 35.4133 12.8719 36.4799C10.8421 36.1341 8.39973 35.3933 7.24195 34.2446C5.19102 32.2063 4.78856 29.2903 6.34605 27.7438ZM2.25706 37.708C2.25706 36.2783 3.2862 34.9873 4.91628 34.2948C5.21216 34.7272 5.55122 35.1451 5.94266 35.5338C6.98466 36.5684 8.56972 37.2509 10.0427 37.6934C8.58718 38.1359 7.01958 38.8138 5.98952 39.8366C5.58246 40.2408 5.23237 40.6769 4.92914 41.1285C3.29079 40.436 2.25706 39.1432 2.25706 37.708ZM7.28973 41.1267C8.43924 39.9853 10.8788 39.2435 12.8893 38.8978C13.2707 39.9561 14.1188 40.7846 15.192 41.1477C14.8447 43.1568 14.0986 45.5892 12.9408 46.7388C10.8899 48.7734 7.95223 49.174 6.39475 47.6275C4.83726 46.081 5.23789 43.1641 7.28973 41.1267ZM16.4307 51.6867C14.9917 51.6867 13.6934 50.6675 12.995 49.0517C13.4306 48.7579 13.8486 48.4167 14.2401 48.028C15.2821 46.9924 15.9694 45.4149 16.4141 43.9542C16.8598 45.4012 17.5434 46.9569 18.5726 47.9796C18.9778 48.382 19.4152 48.7333 19.8718 49.038C19.1753 50.6621 17.8742 51.6867 16.4307 51.6867ZM29.8839 55.6765C28.5855 55.8252 27.4351 55.474 26.6467 54.6893C24.9587 53.0133 25.3878 49.8601 27.6032 47.6603C28.852 46.4204 31.4993 45.622 33.6706 45.2534C34.0684 46.4058 34.9882 47.3054 36.157 47.6831C35.7876 49.8555 34.9836 52.4923 33.7266 53.7404C32.6249 54.8326 31.2604 55.5205 29.8839 55.6765ZM37.4085 59.0432C35.8317 59.0432 34.413 57.9173 33.6614 56.1391C34.1419 55.817 34.6014 55.4503 35.0241 55.0306C36.1782 53.8855 36.9206 52.1146 37.3911 50.5042C37.8625 52.0954 38.6012 53.8481 39.7406 54.9785C40.1844 55.4201 40.6632 55.7988 41.1603 56.1254C40.4123 57.9119 38.9908 59.0432 37.4085 59.0432ZM41.0408 53.6884C39.7939 52.4503 38.9881 49.8181 38.6168 47.6649C39.7774 47.2698 40.6834 46.3556 41.0638 45.196C43.2452 45.5627 45.9081 46.362 47.1642 47.6092C48.2641 48.7013 48.9569 50.0562 49.114 51.4239C49.2629 52.7131 48.9091 53.8554 48.1207 54.6382C46.4309 56.3161 43.2535 55.8873 41.0408 53.6884ZM58.0014 51.6867C56.5615 51.6867 55.2631 50.6675 54.5648 49.0508C55.004 48.7543 55.423 48.413 55.8108 48.028C56.8528 46.9934 57.5392 45.4158 57.9848 43.9551C58.4305 45.4022 59.1141 46.9578 60.1451 47.9805C60.5522 48.3847 60.9886 48.7351 61.4426 49.0362C60.7451 50.6402 59.421 51.6867 58.0014 51.6867ZM67.9895 47.5782C66.432 49.1229 63.4962 48.7287 61.4435 46.6895C60.293 45.5472 59.5469 43.1303 59.1968 41.1294C60.2636 40.7508 61.0971 39.9087 61.4628 38.8421C63.4889 39.187 65.9368 39.9287 67.0936 41.0774C69.1455 43.1148 69.5479 46.0317 67.9895 47.5782ZM69.4193 41.0263C69.1234 40.5939 68.7844 40.1769 68.3929 39.7882C67.3518 38.7536 65.7649 38.072 64.2938 37.6295C65.7502 37.187 67.3142 36.5082 68.3451 35.4854C68.7522 35.0812 69.1023 34.6451 69.4055 34.1935C71.0439 34.8851 72.0776 36.1779 72.0776 37.6131C72.0785 39.0428 71.0494 40.3329 69.4193 41.0263Z" fill="#1D1D1D"/>
<path d="M29.9182 25.2152C30.0027 25.2152 30.0873 25.2033 30.1709 25.1805L45.6621 20.7883C46.1501 20.6496 46.4331 20.145 46.2943 19.6606C46.1547 19.1752 45.6428 18.9015 45.1586 19.0328L29.6673 23.4251C29.1794 23.5637 28.8964 24.0683 29.0351 24.5528C29.1509 24.9542 29.5185 25.2152 29.9182 25.2152Z" fill="#1D1D1D"/>
</svg>
