<svg width="214" height="56" viewBox="0 0 214 56" fill="none" xmlns="http://www.w3.org/2000/svg">
<path d="M18.6035 22.1533C18.6035 24.637 19.8112 25.8789 22.2266 25.8789C25.3027 25.8789 28.5384 24.4206 31.9336 21.5039C33.916 19.7949 35.2832 18.2568 36.0352 16.8896C36.7871 15.4997 37.1973 14.554 37.2656 14.0527C37.3568 13.3008 37.4707 12.9248 37.6074 12.9248C37.8353 12.9248 37.9492 13.335 37.9492 14.1553C37.9492 14.9528 37.7441 15.9098 37.334 17.0264C36.9238 18.1201 36.3542 19.1683 35.625 20.1709C34.9186 21.1735 34.0869 22.1077 33.1299 22.9736C32.1956 23.8167 31.1816 24.5573 30.0879 25.1953C27.7865 26.5169 25.6445 27.1777 23.6621 27.1777C21.6797 27.1777 20.1758 26.779 19.1504 25.9814C18.125 25.1611 17.6123 24.0218 17.6123 22.5635C17.6123 21.0824 18.0339 19.6126 18.877 18.1543C19.7428 16.696 20.9733 15.306 22.5684 13.9844C25.9863 11.1361 30.4069 9.0625 35.8301 7.76367C39.043 7.03451 43.1559 6.66992 48.1689 6.66992C49.8096 6.66992 51.7692 6.80664 54.0479 7.08008C58.4456 7.60417 61.4307 7.86621 63.0029 7.86621C64.598 7.86621 66.0563 7.7181 67.3779 7.42188C68.6995 7.12565 69.873 6.7041 70.8984 6.15723C72.8809 5.10905 74.4189 3.65072 75.5127 1.78223C75.7633 1.39486 76.0026 1.20117 76.2305 1.20117C76.4583 1.20117 76.5723 1.26953 76.5723 1.40625C76.5723 1.6569 76.4697 1.89616 76.2646 2.12402C72.596 7.98014 66.7399 10.9082 58.6963 10.9082C56.7594 10.9082 54.2985 10.7259 51.3135 10.3613C45.5257 9.65495 41.7204 9.30176 39.8975 9.30176C38.0745 9.30176 36.2972 9.48405 34.5654 9.84863C32.8564 10.1904 31.2158 10.6689 29.6436 11.2842C28.0713 11.8994 26.613 12.6286 25.2686 13.4717C23.9242 14.292 22.7507 15.1807 21.748 16.1377C19.6517 18.1657 18.6035 20.1709 18.6035 22.1533ZM5.03418 48.7109C5.03418 49.2122 4.84049 49.6338 4.45312 49.9756C4.06576 50.3174 3.57585 50.4883 2.9834 50.4883C2.36816 50.4883 1.86686 50.3743 1.47949 50.1465V50.3174C1.47949 51.4111 2.1403 52.3226 3.46191 53.0518C4.73796 53.7581 6.11654 54.1113 7.59766 54.1113C9.07878 54.1113 10.3548 54.0088 11.4258 53.8037C12.5195 53.5986 13.6475 53.2227 14.8096 52.6758C15.9717 52.1289 17.1794 51.377 18.4326 50.4199C19.7087 49.4401 21.0417 48.1868 22.4316 46.6602C25.3711 43.4701 28.4928 39.0951 31.7969 33.5352C31.8652 33.3984 31.9222 33.3073 31.9678 33.2617C24.266 34.9707 18.7174 37.3633 15.3223 40.4395C14.3197 41.3281 13.6589 42.0573 13.3398 42.627C12.8841 43.4017 12.5765 43.7891 12.417 43.7891C12.2575 43.7891 12.1777 43.7321 12.1777 43.6182C12.1777 43.3447 12.2575 43.1169 12.417 42.9346C13.2829 40.861 15.5729 38.776 19.2871 36.6797C23.0924 34.5605 27.5472 32.9655 32.6514 31.8945C32.7197 31.8945 32.7767 31.8831 32.8223 31.8604C36.582 25.9814 40.9798 21.276 46.0156 17.7441C50.2083 14.8047 53.7061 13.335 56.5088 13.335C57.0329 13.335 57.2949 13.4147 57.2949 13.5742C57.2949 13.7337 57.2038 13.8363 57.0215 13.8818C56.8392 13.9046 56.2581 14.0641 55.2783 14.3604C54.3213 14.6338 53.1136 15.2376 51.6553 16.1719C50.1969 17.1061 48.7044 18.2682 47.1777 19.6582C44.0788 22.5065 41.0824 26.141 38.1885 30.5615C41.4014 29.7412 43.8053 29.0462 45.4004 28.4766C45.8789 28.1576 46.2663 27.7018 46.5625 27.1094C47.474 27.1094 48.5107 27.1777 49.6729 27.3145C50.8577 27.4512 51.5527 27.5537 51.7578 27.6221C49.1146 28.8298 46.6992 31.0514 44.5117 34.2871C43.8053 35.3125 43.3154 36.1556 43.042 36.8164C42.7913 37.4772 42.6204 37.8418 42.5293 37.9102C42.4609 37.9785 42.3698 38.0127 42.2559 38.0127C41.9824 38.0127 41.8457 37.8532 41.8457 37.5342C41.8457 37.0329 42.2445 35.9163 43.042 34.1846C43.8395 32.43 44.5231 31.1198 45.0928 30.2539C44.1813 30.5501 43.0078 30.8577 41.5723 31.1768L37.1973 32.1338C35.0326 35.9391 32.6058 39.471 29.917 42.7295C27.2282 45.988 24.7331 48.4831 22.4316 50.2148C18.1706 53.4277 13.374 55.0342 8.04199 55.0342C5.99121 55.0342 4.17969 54.5443 2.60742 53.5645C0.94401 52.5391 0.112305 51.3656 0.112305 50.0439C0.112305 48.6312 0.807292 47.7311 2.19727 47.3438C2.58464 47.2526 2.96061 47.207 3.3252 47.207C3.68978 47.207 4.06576 47.3324 4.45312 47.583C4.84049 47.8337 5.03418 48.2096 5.03418 48.7109ZM45.9131 52.9834C45.9131 53.7354 46.46 54.1113 47.5537 54.1113C48.6475 54.1113 49.8096 53.8265 51.04 53.2568C52.2933 52.6644 53.5238 51.9238 54.7314 51.0352C55.9619 50.1465 57.1468 49.1781 58.2861 48.1299C59.4255 47.0589 60.4622 46.0449 61.3965 45.0879L63.7549 42.5586C64.3929 41.8294 64.8258 41.3509 65.0537 41.123L65.7373 41.7041C65.4867 41.9548 65.0195 42.4561 64.3359 43.208C63.6751 43.96 62.8548 44.8258 61.875 45.8057C60.918 46.7855 59.8356 47.8223 58.6279 48.916C57.443 50.0098 56.2012 51.0124 54.9023 51.9238C51.8717 54.0202 49.2171 55.0684 46.9385 55.0684C45.9814 55.0684 45.1953 54.8063 44.5801 54.2822C43.9421 53.7581 43.623 53.1999 43.623 52.6074C43.623 51.9922 43.6572 51.5023 43.7256 51.1377C43.7712 50.7731 43.8851 50.363 44.0674 49.9072C44.2497 49.4287 44.5117 48.8818 44.8535 48.2666C45.1953 47.6286 45.651 46.8652 46.2207 45.9766L51.4502 38.252L77.8711 0.483398C79.5117 0.711263 81.0954 0.711263 82.6221 0.483398C60.8838 30.6982 49.6273 46.3867 48.8525 47.5488C48.0778 48.6882 47.5081 49.554 47.1436 50.1465C46.779 50.7161 46.5055 51.1833 46.3232 51.5479C46.0498 52.0947 45.9131 52.5732 45.9131 52.9834ZM80.1953 49.4971C79.3522 49.4971 78.737 49.1553 78.3496 48.4717C75.638 51.5479 72.71 53.5872 69.5654 54.5898C68.5173 54.9089 67.4919 55.0684 66.4893 55.0684C65.5094 55.0684 64.6663 54.9544 63.96 54.7266C63.2536 54.4987 62.6725 54.1797 62.2168 53.7695C60.3711 52.1745 60.1888 49.4287 61.6699 45.5322C62.2396 44.0055 62.9801 42.5814 63.8916 41.2598C64.7803 39.9382 65.7829 38.7191 66.8994 37.6025C68.0387 36.4632 69.2578 35.4492 70.5566 34.5605C73.4961 32.5781 76.3672 31.5869 79.1699 31.5869C80.3776 31.5869 81.4144 31.9059 82.2803 32.5439C83.1689 33.1592 83.6475 34.0592 83.7158 35.2441C83.7842 36.4062 83.7158 37.5 83.5107 38.5254C83.3057 39.5508 82.998 40.5762 82.5879 41.6016C81.7676 43.6979 80.6055 45.6803 79.1016 47.5488C79.2611 48.2096 79.694 48.54 80.4004 48.54C81.1296 48.54 81.8132 48.3805 82.4512 48.0615C83.112 47.7197 83.7614 47.3096 84.3994 46.8311C85.0602 46.3298 85.6982 45.7829 86.3135 45.1904C86.9515 44.5752 87.5326 43.9941 88.0566 43.4473L89.3555 42.0117C89.7201 41.5788 89.9821 41.2826 90.1416 41.123L90.8936 41.7041C90.5973 41.9775 90.2214 42.3649 89.7656 42.8662C89.3099 43.3675 88.7972 43.903 88.2275 44.4727C88.2275 44.4727 87.6237 45.0651 86.416 46.25C84.069 48.4147 81.9954 49.4971 80.1953 49.4971ZM66.0107 53.7695C66.3753 53.9518 66.888 54.043 67.5488 54.043C69.0299 54.043 70.9326 53.2113 73.2568 51.5479C75.0342 50.2718 76.6178 48.8021 78.0078 47.1387V47.002C78.0078 45.0651 78.737 43.6068 80.1953 42.627C80.5827 42.3535 80.9473 42.1598 81.2891 42.0459C82.3828 39.7217 82.8955 37.819 82.8271 36.3379C82.6904 33.9909 81.8245 32.8174 80.2295 32.8174C77.5407 32.8174 73.7695 35.848 68.916 41.9092C65.7943 45.8285 64.3245 48.8818 64.5068 51.0693C64.5068 52.3226 65.0081 53.2227 66.0107 53.7695ZM95.8154 52.334C95.8154 53.3822 96.2598 53.9062 97.1484 53.9062C98.0599 53.9062 99.0511 53.6328 100.122 53.0859C101.216 52.5391 102.321 51.8441 103.438 51.001C104.577 50.1579 105.693 49.2236 106.787 48.1982L109.761 45.2246C110.672 44.2904 111.458 43.4473 112.119 42.6953L113.521 41.123L114.204 41.7041C113.771 42.0915 113.19 42.6953 112.461 43.5156L110 46.25C104.44 52.1289 99.6549 55.0684 95.6445 55.0684C94.3457 55.0684 93.2975 54.7493 92.5 54.1113C91.7253 53.4733 91.3379 52.6188 91.3379 51.5479C91.3379 48.1527 96.2826 43.1396 106.172 36.5088C101.341 35.7113 98.0029 34.9023 96.1572 34.082C94.6533 37.181 92.3405 40.3369 89.2188 43.5498C88.4896 44.3018 88.0452 44.7119 87.8857 44.7803C87.7035 44.8486 87.5895 44.9056 87.5439 44.9512C87.4984 44.974 87.4642 44.9056 87.4414 44.7461C87.4186 44.5866 87.4186 44.4727 87.4414 44.4043C87.4642 44.3132 87.5098 44.222 87.5781 44.1309C88.6491 42.9232 89.6403 41.7611 90.5518 40.6445C92.6709 38.0013 94.2318 35.6543 95.2344 33.6035C94.4141 33.0794 93.9469 32.5212 93.833 31.9287C93.7191 31.3363 93.7191 30.7894 93.833 30.2881C93.9697 29.764 94.1748 29.2969 94.4482 28.8867C95.0407 27.998 95.7243 27.5537 96.499 27.5537C97.9346 27.5537 98.6523 28.0778 98.6523 29.126C98.6523 29.6501 98.5498 30.0944 98.3447 30.459L97.7295 31.5186C97.3193 32.0426 97.1143 32.6465 97.1143 33.3301C97.1143 33.7402 97.9801 34.1276 99.7119 34.4922C101.466 34.8568 102.708 35.1074 103.438 35.2441C105.033 35.5404 106.297 35.7113 107.231 35.7568C107.869 35.7796 108.188 35.9505 108.188 36.2695C108.188 36.4746 107.812 36.8734 107.061 37.4658C106.331 38.0583 105.522 38.776 104.634 39.6191C103.745 40.4622 102.879 41.3509 102.036 42.2852C101.193 43.1966 100.396 44.1309 99.6436 45.0879C98.8916 46.0449 98.2308 46.9678 97.6611 47.8564C96.4307 49.7705 95.8154 51.263 95.8154 52.334ZM128.662 49.4971C127.819 49.4971 127.204 49.1553 126.816 48.4717C124.105 51.5479 121.177 53.5872 118.032 54.5898C116.984 54.9089 115.959 55.0684 114.956 55.0684C113.976 55.0684 113.133 54.9544 112.427 54.7266C111.72 54.4987 111.139 54.1797 110.684 53.7695C108.838 52.1745 108.656 49.4287 110.137 45.5322C110.706 44.0055 111.447 42.5814 112.358 41.2598C113.247 39.9382 114.25 38.7191 115.366 37.6025C116.506 36.4632 117.725 35.4492 119.023 34.5605C121.963 32.5781 124.834 31.5869 127.637 31.5869C128.844 31.5869 129.881 31.9059 130.747 32.5439C131.636 33.1592 132.114 34.0592 132.183 35.2441C132.251 36.4062 132.183 37.5 131.978 38.5254C131.772 39.5508 131.465 40.5762 131.055 41.6016C130.234 43.6979 129.072 45.6803 127.568 47.5488C127.728 48.2096 128.161 48.54 128.867 48.54C129.596 48.54 130.28 48.3805 130.918 48.0615C131.579 47.7197 132.228 47.3096 132.866 46.8311C133.527 46.3298 134.165 45.7829 134.78 45.1904C135.418 44.5752 135.999 43.9941 136.523 43.4473L137.822 42.0117C138.187 41.5788 138.449 41.2826 138.608 41.123L139.36 41.7041C139.064 41.9775 138.688 42.3649 138.232 42.8662C137.777 43.3675 137.264 43.903 136.694 44.4727C136.694 44.4727 136.09 45.0651 134.883 46.25C132.536 48.4147 130.462 49.4971 128.662 49.4971ZM114.478 53.7695C114.842 53.9518 115.355 54.043 116.016 54.043C117.497 54.043 119.399 53.2113 121.724 51.5479C123.501 50.2718 125.085 48.8021 126.475 47.1387V47.002C126.475 45.0651 127.204 43.6068 128.662 42.627C129.049 42.3535 129.414 42.1598 129.756 42.0459C130.85 39.7217 131.362 37.819 131.294 36.3379C131.157 33.9909 130.291 32.8174 128.696 32.8174C126.007 32.8174 122.236 35.848 117.383 41.9092C114.261 45.8285 112.791 48.8818 112.974 51.0693C112.974 52.3226 113.475 53.2227 114.478 53.7695ZM153.75 49.4971C152.907 49.4971 152.292 49.1553 151.904 48.4717C149.193 51.5479 146.265 53.5872 143.12 54.5898C142.072 54.9089 141.047 55.0684 140.044 55.0684C139.064 55.0684 138.221 54.9544 137.515 54.7266C136.808 54.4987 136.227 54.1797 135.771 53.7695C133.926 52.1745 133.743 49.4287 135.225 45.5322C135.794 44.0055 136.535 42.5814 137.446 41.2598C138.335 39.9382 139.338 38.7191 140.454 37.6025C141.593 36.4632 142.812 35.4492 144.111 34.5605C147.051 32.5781 149.922 31.5869 152.725 31.5869C153.932 31.5869 154.969 31.9059 155.835 32.5439C156.724 33.1592 157.202 34.0592 157.271 35.2441C157.339 36.4062 157.271 37.5 157.065 38.5254C156.86 39.5508 156.553 40.5762 156.143 41.6016C155.322 43.6979 154.16 45.6803 152.656 47.5488C152.816 48.2096 153.249 48.54 153.955 48.54C154.684 48.54 155.368 48.3805 156.006 48.0615C156.667 47.7197 157.316 47.3096 157.954 46.8311C158.615 46.3298 159.253 45.7829 159.868 45.1904C160.506 44.5752 161.087 43.9941 161.611 43.4473L162.91 42.0117C163.275 41.5788 163.537 41.2826 163.696 41.123L164.448 41.7041C164.152 41.9775 163.776 42.3649 163.32 42.8662C162.865 43.3675 162.352 43.903 161.782 44.4727C161.782 44.4727 161.178 45.0651 159.971 46.25C157.624 48.4147 155.55 49.4971 153.75 49.4971ZM139.565 53.7695C139.93 53.9518 140.443 54.043 141.104 54.043C142.585 54.043 144.487 53.2113 146.812 51.5479C148.589 50.2718 150.173 48.8021 151.562 47.1387V47.002C151.562 45.0651 152.292 43.6068 153.75 42.627C154.137 42.3535 154.502 42.1598 154.844 42.0459C155.938 39.7217 156.45 37.819 156.382 36.3379C156.245 33.9909 155.379 32.8174 153.784 32.8174C151.095 32.8174 147.324 35.848 142.471 41.9092C139.349 45.8285 137.879 48.8818 138.062 51.0693C138.062 52.3226 138.563 53.2227 139.565 53.7695ZM164.653 54.3506C164.129 54.2367 163.468 54.1797 162.671 54.1797C161.281 54.1797 160.21 54.2936 159.458 54.5215L171.318 37.5684C172.799 35.4948 173.563 34.2643 173.608 33.877C173.7 33.125 173.46 32.749 172.891 32.749C172.048 32.749 169.951 34.834 166.602 39.0039L164.414 41.7041C164.232 41.7952 164.038 41.7497 163.833 41.5674C163.651 41.3623 163.605 41.2142 163.696 41.123C164.357 40.4167 165.098 39.528 165.918 38.457C166.761 37.3633 167.638 36.3151 168.55 35.3125C170.783 32.8288 172.64 31.5869 174.121 31.5869C176.628 31.5869 177.425 32.8743 176.514 35.4492C176.331 35.9961 175.933 36.7025 175.317 37.5684L168.14 47.5488L168.311 47.9248C174.44 40.8382 178.94 36.2581 181.812 34.1846C184.09 32.4528 186.198 31.5869 188.135 31.5869C189.456 31.5869 190.505 31.9515 191.279 32.6807C191.895 33.2959 192.179 33.9453 192.134 34.6289C192.111 35.3125 192.065 35.8366 191.997 36.2012C191.951 36.543 191.872 36.8962 191.758 37.2607C191.484 38.0127 191.006 38.9242 190.322 39.9951C195.199 35.0277 198.89 32.2819 201.396 31.7578C201.898 31.6439 202.445 31.5869 203.037 31.5869C203.652 31.5869 204.211 31.6895 204.712 31.8945C205.236 32.0996 205.658 32.3617 205.977 32.6807C206.569 33.2731 206.854 33.9909 206.831 34.834C206.831 35.6543 206.672 36.4974 206.353 37.3633C206.056 38.2292 205.544 39.2546 204.814 40.4395C203.288 42.8776 200.713 46.0563 197.09 49.9756C195.586 51.5479 194.8 52.4707 194.731 52.7441C194.663 52.9948 194.629 53.1885 194.629 53.3252L194.39 53.3594C194.39 53.9062 195.039 54.1797 196.338 54.1797C197.637 54.1797 198.822 53.8949 199.893 53.3252C200.986 52.7327 202.091 51.9922 203.208 51.1035C204.325 50.1921 205.407 49.2008 206.455 48.1299C207.526 47.0589 208.494 46.0449 209.36 45.0879L211.548 42.5586C212.14 41.8294 212.539 41.3509 212.744 41.123L213.462 41.7041C213.234 41.932 212.801 42.4333 212.163 43.208C211.548 43.96 210.785 44.8372 209.873 45.8398C208.984 46.8424 207.982 47.8906 206.865 48.9844C205.749 50.0781 204.598 51.0807 203.413 51.9922C200.656 54.1113 198.343 55.1709 196.475 55.1709C194.492 55.1709 193.091 54.6468 192.271 53.5986C192.02 53.2796 191.895 52.9036 191.895 52.4707C191.895 52.0378 191.963 51.5365 192.1 50.9668C192.259 50.3971 192.601 49.6794 193.125 48.8135C194.173 47.0361 195.7 45.0195 197.705 42.7637C199.71 40.5078 201.009 38.9925 201.602 38.2178C202.217 37.443 202.718 36.7708 203.105 36.2012C203.812 35.0846 204.165 34.2415 204.165 33.6719C204.165 32.8516 203.584 32.4414 202.422 32.4414C200.143 32.4414 196.201 35.2897 190.596 40.9863C188.203 43.4017 185.537 46.4665 182.598 50.1807L179.419 54.3506C178.895 54.2367 178.234 54.1797 177.437 54.1797C176.138 54.1797 175.067 54.2936 174.224 54.5215C177.596 50.3971 179.453 48.1185 179.795 47.6855C184.922 40.918 187.759 37.0898 188.306 36.2012C189.058 34.9023 189.434 34.0023 189.434 33.501C189.434 32.7946 188.875 32.4414 187.759 32.4414C186.278 32.4414 184.546 33.2389 182.563 34.834C178.394 38.1608 173.483 43.2764 167.832 50.1807L164.653 54.3506Z" fill="#1D1D1D"/>
</svg>
